<svg xmlns="http://www.w3.org/2000/svg" xmlns:xlink="http://www.w3.org/1999/xlink" width="1080" zoomAndPan="magnify" viewBox="0 0 810 809.999993" height="1080" preserveAspectRatio="xMidYMid meet" version="1.0"><defs><g/><clipPath id="16529d4508"><path d="M 32.929688 33.304688 L 776.179688 33.304688 L 776.179688 776.554688 L 32.929688 776.554688 Z M 32.929688 33.304688 " clip-rule="nonzero"/></clipPath></defs><g fill="#ffffff" fill-opacity="1"><g transform="translate(285.749404, 650.168689)"><g><path d="M 6.15625 -67.765625 L 41.0625 -67.765625 L 36.96875 -55.4375 L 29.78125 -55.4375 L 29.78125 -6.15625 C 29.78125 -0.476562 27.773438 4.359375 23.765625 8.359375 C 19.765625 12.367188 14.921875 14.375 9.234375 14.375 L -7.1875 14.375 L -3.078125 2.046875 L 9.234375 2.046875 C 11.492188 2.046875 13.425781 1.242188 15.03125 -0.359375 C 16.644531 -1.960938 17.453125 -3.894531 17.453125 -6.15625 L 17.453125 -28.75 L 11.296875 -28.75 L 15.40625 -41.0625 L 17.453125 -41.0625 L 17.453125 -51.328125 L 21.5625 -55.4375 L 2.046875 -55.4375 Z M 6.15625 -67.765625 "/></g></g></g><g fill="#ffffff" fill-opacity="1"><g transform="translate(328.874277, 650.168689)"><g><path d="M 17.453125 -41.0625 L 17.453125 -23.09375 L 31.828125 -33.875 L 31.828125 -34.90625 C 31.828125 -36.613281 31.226562 -38.066406 30.03125 -39.265625 C 28.832031 -40.460938 27.378906 -41.0625 25.671875 -41.0625 Z M 25.671875 -53.390625 C 30.804688 -53.390625 35.171875 -51.59375 38.765625 -48 C 42.359375 -44.40625 44.15625 -40.039062 44.15625 -34.90625 L 44.15625 -33.875 L 23.609375 -18.484375 L 17.453125 -18.484375 C 17.453125 -16.222656 18.253906 -14.285156 19.859375 -12.671875 C 21.472656 -11.066406 23.410156 -10.265625 25.671875 -10.265625 L 42.09375 -10.265625 L 33.875 2.046875 L 25.671875 2.046875 C 19.984375 2.046875 15.140625 0.046875 11.140625 -3.953125 C 7.140625 -7.953125 5.140625 -12.796875 5.140625 -18.484375 L 5.140625 -37.984375 Z M 25.671875 -53.390625 "/></g></g></g><g fill="#ffffff" fill-opacity="1"><g transform="translate(377.133032, 650.168689)"><g><path d="M 25.671875 -53.390625 L 27.71875 -53.390625 C 31.6875 -53.390625 35.070312 -51.984375 37.875 -49.171875 C 40.6875 -46.367188 42.09375 -42.984375 42.09375 -39.015625 L 42.09375 -37.984375 L 29.78125 -33.875 L 29.78125 -39.015625 C 29.78125 -39.566406 29.570312 -40.046875 29.15625 -40.453125 C 28.75 -40.859375 28.269531 -41.0625 27.71875 -41.0625 L 17.453125 -41.0625 L 17.453125 -32.859375 L 32.859375 -32.859375 C 36.273438 -32.859375 39.179688 -31.660156 41.578125 -29.265625 C 43.972656 -26.867188 45.171875 -23.957031 45.171875 -20.53125 L 45.171875 -10.265625 L 28.75 2.046875 L 18.484375 2.046875 C 14.515625 2.046875 11.125 0.644531 8.3125 -2.15625 C 5.507812 -4.957031 4.109375 -8.347656 4.109375 -12.328125 L 4.109375 -15.40625 L 16.421875 -19.5 L 16.421875 -12.328125 C 16.421875 -11.773438 16.625 -11.289062 17.03125 -10.875 C 17.445312 -10.46875 17.929688 -10.265625 18.484375 -10.265625 L 32.859375 -10.265625 L 32.859375 -20.53125 L 17.453125 -20.53125 C 14.035156 -20.53125 11.128906 -21.726562 8.734375 -24.125 C 6.335938 -26.519531 5.140625 -29.429688 5.140625 -32.859375 L 5.140625 -37.984375 Z M 25.671875 -53.390625 "/></g></g></g><g fill="#ffffff" fill-opacity="1"><g transform="translate(426.418601, 650.168689)"><g><path d="M 44.15625 2.046875 L 42.09375 2.046875 C 39.425781 2.046875 37.03125 1.28125 34.90625 -0.25 C 32.78125 -1.789062 31.3125 -3.757812 30.5 -6.15625 L 19.5 2.046875 C 15.53125 2.046875 12.144531 0.644531 9.34375 -2.15625 C 6.539062 -4.957031 5.140625 -8.347656 5.140625 -12.328125 L 5.140625 -49.28125 L 17.453125 -53.390625 L 17.453125 -12.328125 C 17.453125 -11.773438 17.65625 -11.289062 18.0625 -10.875 C 18.476562 -10.46875 18.957031 -10.265625 19.5 -10.265625 L 29.78125 -10.265625 L 29.78125 -51.328125 L 42.09375 -51.328125 L 42.09375 -10.265625 L 48.25 -10.265625 Z M 44.15625 2.046875 "/></g></g></g><g fill="#ffffff" fill-opacity="1"><g transform="translate(475.704169, 650.168689)"><g><path d="M 25.671875 -53.390625 L 27.71875 -53.390625 C 31.6875 -53.390625 35.070312 -51.984375 37.875 -49.171875 C 40.6875 -46.367188 42.09375 -42.984375 42.09375 -39.015625 L 42.09375 -37.984375 L 29.78125 -33.875 L 29.78125 -39.015625 C 29.78125 -39.566406 29.570312 -40.046875 29.15625 -40.453125 C 28.75 -40.859375 28.269531 -41.0625 27.71875 -41.0625 L 17.453125 -41.0625 L 17.453125 -32.859375 L 32.859375 -32.859375 C 36.273438 -32.859375 39.179688 -31.660156 41.578125 -29.265625 C 43.972656 -26.867188 45.171875 -23.957031 45.171875 -20.53125 L 45.171875 -10.265625 L 28.75 2.046875 L 18.484375 2.046875 C 14.515625 2.046875 11.125 0.644531 8.3125 -2.15625 C 5.507812 -4.957031 4.109375 -8.347656 4.109375 -12.328125 L 4.109375 -15.40625 L 16.421875 -19.5 L 16.421875 -12.328125 C 16.421875 -11.773438 16.625 -11.289062 17.03125 -10.875 C 17.445312 -10.46875 17.929688 -10.265625 18.484375 -10.265625 L 32.859375 -10.265625 L 32.859375 -20.53125 L 17.453125 -20.53125 C 14.035156 -20.53125 11.128906 -21.726562 8.734375 -24.125 C 6.335938 -26.519531 5.140625 -29.429688 5.140625 -32.859375 L 5.140625 -37.984375 Z M 25.671875 -53.390625 "/></g></g></g><g clip-path="url(#16529d4508)"><path fill="#004aad" d="M 776.308594 404.996094 C 776.308594 411.078125 776.160156 417.160156 775.863281 423.234375 C 775.5625 429.308594 775.117188 435.375 774.519531 441.429688 C 773.925781 447.480469 773.179688 453.515625 772.289062 459.535156 C 771.394531 465.550781 770.355469 471.542969 769.167969 477.507812 C 767.980469 483.476562 766.648438 489.410156 765.171875 495.308594 C 763.691406 501.210938 762.070312 507.070312 760.304688 512.890625 C 758.539062 518.710938 756.632812 524.488281 754.582031 530.214844 C 752.535156 535.941406 750.34375 541.617188 748.015625 547.234375 C 745.6875 552.855469 743.226562 558.414062 740.625 563.914062 C 738.023438 569.414062 735.289062 574.84375 732.421875 580.210938 C 729.554688 585.574219 726.558594 590.863281 723.429688 596.082031 C 720.300781 601.300781 717.050781 606.4375 713.667969 611.496094 C 710.289062 616.554688 706.789062 621.523438 703.164062 626.410156 C 699.539062 631.296875 695.800781 636.089844 691.941406 640.792969 C 688.082031 645.496094 684.109375 650.101562 680.023438 654.605469 C 675.941406 659.113281 671.746094 663.519531 667.445312 667.820312 C 663.144531 672.121094 658.738281 676.316406 654.230469 680.398438 C 649.726562 684.484375 645.121094 688.457031 640.417969 692.316406 C 635.714844 696.175781 630.921875 699.914062 626.035156 703.539062 C 621.148438 707.164062 616.179688 710.664062 611.121094 714.042969 C 606.0625 717.425781 600.925781 720.675781 595.707031 723.804688 C 590.488281 726.933594 585.199219 729.929688 579.835938 732.796875 C 574.46875 735.664062 569.039062 738.398438 563.539062 741 C 558.039062 743.601562 552.480469 746.0625 546.859375 748.390625 C 541.242188 750.71875 535.566406 752.910156 529.839844 754.957031 C 524.113281 757.007812 518.335938 758.914062 512.515625 760.679688 C 506.695312 762.445312 500.835938 764.066406 494.933594 765.546875 C 489.035156 767.023438 483.101562 768.355469 477.132812 769.542969 C 471.167969 770.730469 465.175781 771.769531 459.160156 772.664062 C 453.140625 773.554688 447.105469 774.300781 441.054688 774.894531 C 435 775.492188 428.933594 775.9375 422.859375 776.238281 C 416.785156 776.535156 410.703125 776.683594 404.621094 776.683594 C 398.539062 776.683594 392.457031 776.535156 386.382812 776.238281 C 380.308594 775.9375 374.242188 775.492188 368.1875 774.894531 C 362.136719 774.300781 356.101562 773.554688 350.082031 772.664062 C 344.066406 771.769531 338.074219 770.730469 332.109375 769.542969 C 326.140625 768.355469 320.207031 767.023438 314.308594 765.546875 C 308.40625 764.066406 302.546875 762.445312 296.726562 760.679688 C 290.902344 758.914062 285.128906 757.007812 279.402344 754.957031 C 273.675781 752.910156 268 750.71875 262.382812 748.390625 C 256.761719 746.0625 251.203125 743.601562 245.703125 741 C 240.203125 738.398438 234.773438 735.664062 229.40625 732.796875 C 224.042969 729.929688 218.75 726.933594 213.535156 723.804688 C 208.316406 720.675781 203.179688 717.425781 198.121094 714.042969 C 193.0625 710.664062 188.089844 707.164062 183.207031 703.539062 C 178.320312 699.914062 173.527344 696.175781 168.824219 692.316406 C 164.121094 688.457031 159.515625 684.484375 155.007812 680.398438 C 150.503906 676.316406 146.097656 672.121094 141.796875 667.820312 C 137.496094 663.519531 133.300781 659.113281 129.21875 654.605469 C 125.132812 650.101562 121.160156 645.496094 117.300781 640.792969 C 113.441406 636.089844 109.699219 631.296875 106.078125 626.410156 C 102.453125 621.523438 98.953125 616.554688 95.574219 611.496094 C 92.191406 606.4375 88.941406 601.300781 85.8125 596.082031 C 82.683594 590.863281 79.6875 585.574219 76.820312 580.210938 C 73.953125 574.84375 71.21875 569.414062 68.617188 563.914062 C 66.015625 558.414062 63.550781 552.855469 61.226562 547.234375 C 58.898438 541.617188 56.707031 535.941406 54.660156 530.214844 C 52.609375 524.488281 50.703125 518.710938 48.9375 512.890625 C 47.171875 507.070312 45.546875 501.210938 44.070312 495.308594 C 42.59375 489.410156 41.261719 483.476562 40.074219 477.507812 C 38.886719 471.542969 37.847656 465.550781 36.953125 459.535156 C 36.0625 453.515625 35.316406 447.480469 34.722656 441.429688 C 34.125 435.375 33.679688 429.308594 33.378906 423.234375 C 33.082031 417.160156 32.929688 411.078125 32.929688 404.996094 C 32.929688 398.914062 33.082031 392.832031 33.378906 386.757812 C 33.679688 380.683594 34.125 374.617188 34.722656 368.5625 C 35.316406 362.511719 36.0625 356.476562 36.953125 350.457031 C 37.847656 344.441406 38.886719 338.449219 40.074219 332.484375 C 41.261719 326.515625 42.59375 320.582031 44.070312 314.683594 C 45.546875 308.78125 47.171875 302.921875 48.9375 297.101562 C 50.703125 291.277344 52.609375 285.503906 54.660156 279.777344 C 56.707031 274.050781 58.898438 268.375 61.226562 262.757812 C 63.550781 257.136719 66.015625 251.578125 68.617188 246.078125 C 71.21875 240.578125 73.953125 235.148438 76.820312 229.78125 C 79.6875 224.417969 82.683594 219.128906 85.8125 213.910156 C 88.941406 208.691406 92.191406 203.554688 95.574219 198.496094 C 98.953125 193.4375 102.453125 188.464844 106.078125 183.582031 C 109.699219 178.695312 113.441406 173.902344 117.300781 169.199219 C 121.160156 164.496094 125.132812 159.890625 129.21875 155.382812 C 133.300781 150.878906 137.496094 146.472656 141.796875 142.171875 C 146.097656 137.871094 150.503906 133.675781 155.007812 129.59375 C 159.515625 125.507812 164.121094 121.535156 168.824219 117.675781 C 173.527344 113.816406 178.320312 110.074219 183.207031 106.453125 C 188.089844 102.828125 193.0625 99.328125 198.121094 95.949219 C 203.179688 92.566406 208.316406 89.316406 213.535156 86.1875 C 218.75 83.058594 224.042969 80.0625 229.40625 77.195312 C 234.773438 74.328125 240.203125 71.59375 245.703125 68.992188 C 251.203125 66.390625 256.761719 63.925781 262.382812 61.601562 C 268 59.273438 273.675781 57.082031 279.402344 55.035156 C 285.128906 52.984375 290.902344 51.078125 296.726562 49.3125 C 302.546875 47.546875 308.40625 45.921875 314.308594 44.445312 C 320.207031 42.96875 326.140625 41.636719 332.109375 40.449219 C 338.074219 39.261719 344.066406 38.222656 350.082031 37.328125 C 356.101562 36.4375 362.136719 35.691406 368.1875 35.097656 C 374.242188 34.5 380.308594 34.054688 386.382812 33.753906 C 392.457031 33.457031 398.539062 33.304688 404.621094 33.304688 C 410.703125 33.304688 416.785156 33.457031 422.859375 33.753906 C 428.933594 34.054688 435 34.5 441.054688 35.097656 C 447.105469 35.691406 453.140625 36.4375 459.160156 37.328125 C 465.175781 38.222656 471.167969 39.261719 477.132812 40.449219 C 483.101562 41.636719 489.035156 42.96875 494.933594 44.445312 C 500.835938 45.921875 506.695312 47.546875 512.515625 49.3125 C 518.335938 51.078125 524.113281 52.984375 529.839844 55.035156 C 535.566406 57.082031 541.242188 59.273438 546.859375 61.601562 C 552.480469 63.925781 558.039062 66.390625 563.539062 68.992188 C 569.039062 71.59375 574.46875 74.328125 579.835938 77.195312 C 585.199219 80.0625 590.488281 83.058594 595.707031 86.1875 C 600.925781 89.316406 606.0625 92.566406 611.121094 95.949219 C 616.179688 99.328125 621.148438 102.828125 626.035156 106.453125 C 630.921875 110.074219 635.714844 113.816406 640.417969 117.675781 C 645.121094 121.535156 649.726562 125.507812 654.230469 129.59375 C 658.738281 133.675781 663.144531 137.871094 667.445312 142.171875 C 671.746094 146.472656 675.941406 150.878906 680.023438 155.382812 C 684.109375 159.890625 688.082031 164.496094 691.941406 169.199219 C 695.800781 173.902344 699.542969 178.695312 703.164062 183.582031 C 706.789062 188.464844 710.289062 193.4375 713.667969 198.496094 C 717.050781 203.554688 720.300781 208.691406 723.429688 213.910156 C 726.558594 219.128906 729.554688 224.417969 732.421875 229.78125 C 735.289062 235.148438 738.023438 240.578125 740.625 246.078125 C 743.226562 251.578125 745.6875 257.136719 748.015625 262.757812 C 750.34375 268.375 752.535156 274.050781 754.582031 279.777344 C 756.632812 285.503906 758.539062 291.277344 760.304688 297.101562 C 762.070312 302.921875 763.691406 308.78125 765.171875 314.683594 C 766.648438 320.582031 767.980469 326.515625 769.167969 332.484375 C 770.355469 338.449219 771.394531 344.441406 772.289062 350.457031 C 773.179688 356.476562 773.925781 362.511719 774.519531 368.5625 C 775.117188 374.617188 775.5625 380.683594 775.863281 386.757812 C 776.160156 392.832031 776.308594 398.914062 776.308594 404.996094 Z M 776.308594 404.996094 " fill-opacity="1" fill-rule="nonzero"/></g><g fill="#ffffff" fill-opacity="1"><g transform="translate(251.64295, 661.505325)"><g><path d="M 360.015625 -382.703125 C 361.523438 -372.117188 362.28125 -361.785156 362.28125 -351.703125 C 362.28125 -322.960938 356.484375 -295.734375 344.890625 -270.015625 C 338.335938 -257.410156 331.53125 -246.316406 324.46875 -236.734375 C 325.976562 -239.253906 326.734375 -242.28125 326.734375 -245.8125 C 326.734375 -249.84375 326.484375 -252.867188 325.984375 -254.890625 C 325.484375 -256.898438 325.234375 -259.421875 325.234375 -262.453125 C 325.234375 -264.972656 325.734375 -266.234375 326.734375 -266.234375 L 325.984375 -266.234375 C 325.984375 -269.765625 325.734375 -272.285156 325.234375 -273.796875 C 325.234375 -276.816406 326.238281 -279.585938 328.25 -282.109375 C 325.226562 -282.617188 324.222656 -283.878906 325.234375 -285.890625 C 325.234375 -287.910156 324.976562 -289.175781 324.46875 -289.6875 L 324.46875 -236.734375 C 312.363281 -220.097656 297.238281 -206.738281 279.09375 -196.65625 L 278.328125 -196.65625 C 254.128906 -183.539062 227.15625 -172.953125 197.40625 -164.890625 C 188.832031 -161.859375 176.984375 -159.082031 161.859375 -156.5625 L 155.046875 -155.046875 L 149 -154.296875 L 148.25 -154.296875 C 148.25 -155.304688 147.742188 -155.8125 146.734375 -155.8125 C 144.210938 -155.8125 142.953125 -155.050781 142.953125 -153.53125 C 142.953125 -153.03125 143.203125 -152.78125 143.703125 -152.78125 L 120.265625 -149.75 L 115.71875 -15.125 C 115.71875 -5.039062 110.675781 0 100.59375 0 L 7.5625 0 C 3.019531 0 -0.632812 -1.507812 -3.40625 -4.53125 C -6.175781 -7.5625 -7.5625 -11.347656 -7.5625 -15.890625 L -4.53125 -72.609375 L -3.03125 -71.09375 C -1.507812 -71.601562 1.007812 -73.117188 4.53125 -75.640625 L 2.265625 -77.140625 L -1.515625 -77.140625 L -4.53125 -74.875 L -3.03125 -114.96875 L -0.75 -114.96875 C -0.75 -115.976562 -1.253906 -116.484375 -2.265625 -116.484375 L -3.03125 -117.234375 L 13.609375 -474.984375 C 14.617188 -482.546875 18.65625 -487.082031 25.71875 -488.59375 C 119 -507.757812 171.4375 -518.097656 183.03125 -519.609375 C 185.050781 -519.609375 187.828125 -519.734375 191.359375 -519.984375 C 194.890625 -520.234375 198.921875 -520.863281 203.453125 -521.875 L 223.875 -522.640625 L 224.640625 -522.640625 C 263.960938 -520.617188 295.222656 -507 318.421875 -481.78125 C 341.617188 -456.570312 355.484375 -423.546875 360.015625 -382.703125 Z M 40.09375 -441.703125 L 40.09375 -443.96875 L 38.578125 -443.96875 L 38.578125 -441.703125 Z M 126.3125 -270.765625 C 142.445312 -272.785156 154.546875 -274.804688 162.609375 -276.828125 C 187.316406 -284.890625 205.972656 -294.21875 218.578125 -304.8125 C 228.160156 -312.875 234.460938 -323.460938 237.484375 -336.578125 C 237.992188 -339.097656 238.25 -342.878906 238.25 -347.921875 C 238.25 -362.546875 234.96875 -375.65625 228.40625 -387.25 C 221.851562 -398.84375 212.53125 -404.640625 200.4375 -404.640625 C 197.40625 -404.640625 195.132812 -404.390625 193.625 -403.890625 L 133.875 -391.78125 Z M 281.359375 -400.109375 L 281.359375 -398.59375 L 284.390625 -398.59375 L 284.390625 -400.109375 Z M 240.515625 -394.0625 C 240.015625 -393.550781 239.765625 -393.039062 239.765625 -392.53125 C 239.765625 -392.03125 240.015625 -391.78125 240.515625 -391.78125 C 241.023438 -390.769531 241.78125 -390.265625 242.78125 -390.265625 C 243.789062 -390.265625 244.296875 -390.769531 244.296875 -391.78125 L 245.8125 -392.546875 Z M 31.015625 -386.484375 L 31.015625 -390.265625 L 29.5 -390.265625 L 29.5 -386.484375 Z M 263.203125 -386.484375 L 263.203125 -388.765625 L 260.9375 -388.765625 L 260.9375 -386.484375 Z M 267.75 -361.53125 C 267.75 -364.050781 265.726562 -366.320312 261.6875 -368.34375 L 261.6875 -359.265625 C 263.707031 -359.265625 265.726562 -360.019531 267.75 -361.53125 Z M 269.265625 -346.40625 C 271.273438 -348.425781 272.28125 -349.6875 272.28125 -350.1875 L 270.765625 -353.96875 L 267.75 -351.703125 C 267.75 -351.703125 267.617188 -351.570312 267.359375 -351.3125 C 267.109375 -351.0625 266.984375 -350.9375 266.984375 -350.9375 L 266.234375 -350.9375 C 264.210938 -349.9375 262.695312 -348.929688 261.6875 -347.921875 Z M 281.359375 -340.359375 C 279.847656 -343.890625 278.835938 -345.65625 278.328125 -345.65625 L 276.828125 -346.40625 L 275.3125 -345.65625 C 275.3125 -343.632812 276.316406 -342.625 278.328125 -342.625 Z M 254.125 -329.015625 C 254.125 -330.523438 253.875 -331.53125 253.375 -332.03125 L 251.859375 -332.796875 L 248.84375 -332.796875 L 248.84375 -329.015625 Z M 252.625 -319.9375 C 254.632812 -321.945312 255.640625 -323.710938 255.640625 -325.234375 C 253.628906 -325.234375 252.367188 -325.484375 251.859375 -325.984375 L 248.84375 -323.71875 C 247.320312 -322.207031 246.816406 -321.195312 247.328125 -320.6875 Z M 261.6875 -321.453125 C 265.726562 -321.453125 267.75 -322.710938 267.75 -325.234375 L 261.6875 -325.234375 Z M 326.734375 -311.609375 C 327.242188 -312.117188 327.5 -312.875 327.5 -313.875 C 327.5 -315.894531 326.488281 -318.164062 324.46875 -320.6875 C 323.457031 -319.675781 323.457031 -318.671875 324.46875 -317.671875 C 324.46875 -316.148438 324.21875 -315.140625 323.71875 -314.640625 L 318.421875 -314.640625 C 319.429688 -313.128906 318.925781 -312.375 316.90625 -312.375 C 316.90625 -312.375 318.421875 -311.867188 321.453125 -310.859375 L 325.234375 -310.09375 C 325.234375 -310.09375 325.359375 -310.34375 325.609375 -310.84375 C 325.859375 -311.351562 326.234375 -311.609375 326.734375 -311.609375 Z M 257.15625 -314.640625 C 261.1875 -313.128906 264.71875 -312.375 267.75 -312.375 C 264.71875 -314.894531 263.203125 -316.15625 263.203125 -316.15625 C 260.679688 -316.15625 259.171875 -315.898438 258.671875 -315.390625 Z M 261.6875 -311.609375 L 258.671875 -310.09375 L 263.203125 -307.078125 L 264.71875 -308.59375 Z M 323.71875 -308.59375 L 323.71875 -291.1875 L 325.984375 -291.1875 L 325.984375 -308.59375 Z M 247.328125 -287.40625 C 244.804688 -290.4375 242.03125 -292.457031 239 -293.46875 Z M 253.375 -258.671875 L 253.375 -257.15625 L 260.9375 -257.15625 L 260.9375 -258.671875 Z M 240.515625 -248.84375 C 240.515625 -249.84375 239.882812 -250.722656 238.625 -251.484375 C 237.363281 -252.242188 236.226562 -252.625 235.21875 -252.625 L 233.703125 -248.078125 Z M 221.609375 -248.84375 L 226.140625 -248.84375 L 226.140625 -250.34375 L 221.609375 -250.34375 Z M 54.453125 -237.484375 C 53.441406 -239.003906 52.179688 -240.269531 50.671875 -241.28125 C 49.160156 -242.28125 48.40625 -243.285156 48.40625 -244.296875 C 46.894531 -242.785156 45.382812 -242.03125 43.875 -242.03125 C 43.875 -241.53125 43.367188 -241.28125 42.359375 -241.28125 C 46.390625 -240.769531 49.160156 -239.503906 50.671875 -237.484375 Z M 223.125 -243.546875 C 222.113281 -242.535156 221.609375 -242.03125 221.609375 -242.03125 L 220.859375 -242.03125 C 219.847656 -241.53125 219.34375 -240.773438 219.34375 -239.765625 C 219.34375 -238.242188 219.59375 -237.484375 220.09375 -237.484375 L 220.859375 -237.484375 C 221.859375 -236.484375 223.117188 -235.984375 224.640625 -235.984375 C 227.160156 -235.984375 228.671875 -236.738281 229.171875 -238.25 L 229.171875 -242.03125 Z M 38.578125 -237.484375 L 40.09375 -239.765625 C 40.59375 -240.265625 40.84375 -241.019531 40.84375 -242.03125 L 37.0625 -242.03125 L 37.0625 -240.515625 Z M 149.75 -240.515625 L 147.484375 -240.515625 L 147.484375 -236.734375 L 149.75 -236.734375 Z M 42.359375 -228.421875 C 44.367188 -228.421875 46.132812 -228.671875 47.65625 -229.171875 C 50.675781 -230.179688 52.4375 -230.6875 52.9375 -230.6875 L 49.15625 -233.703125 C 47.144531 -234.710938 45.882812 -235.21875 45.375 -235.21875 C 44.375 -235.21875 42.863281 -234.710938 40.84375 -233.703125 L 37.0625 -230.6875 C 38.070312 -230.175781 38.828125 -229.796875 39.328125 -229.546875 C 39.835938 -229.296875 39.835938 -229.171875 39.328125 -229.171875 Z M 239.765625 -234.46875 L 238.25 -230.6875 L 241.28125 -229.921875 L 242.78125 -232.953125 Z M 190.59375 -223.125 C 189.59375 -223.125 188.585938 -222.742188 187.578125 -221.984375 C 186.566406 -221.234375 186.0625 -220.351562 186.0625 -219.34375 L 191.359375 -218.578125 L 191.359375 -214.796875 L 195.890625 -214.796875 L 198.15625 -215.5625 C 196.144531 -217.570312 193.878906 -218.578125 191.359375 -218.578125 L 192.109375 -220.859375 C 192.109375 -221.359375 191.601562 -222.113281 190.59375 -223.125 Z M 218.578125 -218.578125 C 218.578125 -219.085938 218.328125 -219.34375 217.828125 -219.34375 L 217.828125 -220.859375 C 217.828125 -220.859375 217.703125 -220.984375 217.453125 -221.234375 C 217.203125 -221.484375 217.078125 -221.609375 217.078125 -221.609375 L 212.53125 -218.578125 Z M 37.8125 -220.859375 L 36.296875 -220.859375 L 38.578125 -214.796875 L 40.09375 -214.796875 Z M 204.96875 -213.28125 C 205.976562 -214.289062 206.484375 -215.300781 206.484375 -216.3125 C 206.484375 -217.320312 205.976562 -218.332031 204.96875 -219.34375 L 199.671875 -219.34375 C 201.179688 -215.8125 202.945312 -213.789062 204.96875 -213.28125 Z M 38.578125 -213.28125 L 36.296875 -211.015625 L 37.8125 -210.265625 L 40.09375 -213.28125 Z M 156.5625 -213.28125 L 156.5625 -208 L 162.609375 -208.75 Z M 57.484375 -212.53125 L 57.484375 -208.75 L 62.015625 -208.75 L 62.015625 -212.53125 Z M 198.15625 -209.5 C 195.632812 -207.988281 193.367188 -205.972656 191.359375 -203.453125 L 197.40625 -203.453125 L 208.75 -201.1875 L 208.75 -202.703125 L 208 -203.453125 L 207.234375 -204.96875 L 206.484375 -204.96875 L 205.71875 -204.21875 L 202.703125 -203.453125 L 199.671875 -203.453125 Z M 214.046875 -197.40625 C 214.046875 -199.425781 212.785156 -201.191406 210.265625 -202.703125 C 208.753906 -200.679688 208.5 -198.664062 209.5 -196.65625 L 212.53125 -196.65625 Z M 195.140625 -189.09375 C 196.648438 -189.09375 197.910156 -188.585938 198.921875 -187.578125 C 201.441406 -191.109375 202.703125 -193.125 202.703125 -193.625 L 201.9375 -196.65625 C 201.9375 -196.65625 201.179688 -197.410156 199.671875 -198.921875 L 198.15625 -198.15625 L 197.40625 -198.15625 C 197.40625 -198.15625 197.28125 -198.03125 197.03125 -197.78125 C 196.78125 -197.53125 196.65625 -197.40625 196.65625 -197.40625 L 195.140625 -196.65625 Z M 27.234375 -194.375 L 31.015625 -194.375 L 30.25 -195.890625 C 30.25 -195.890625 29.492188 -196.644531 27.984375 -198.15625 L 27.984375 -195.890625 Z M 218.578125 -191.359375 L 218.578125 -189.09375 L 224.640625 -190.59375 L 224.640625 -192.875 Z M 146.734375 -188.328125 C 144.210938 -185.804688 142.953125 -184.039062 142.953125 -183.03125 L 146.734375 -180.765625 L 151.265625 -184.546875 Z M 204.96875 -185.296875 C 204.96875 -183.785156 206.226562 -183.03125 208.75 -183.03125 L 210.265625 -183.03125 C 210.765625 -183.539062 211.015625 -184.550781 211.015625 -186.0625 L 211.015625 -188.328125 C 206.984375 -188.328125 204.96875 -187.316406 204.96875 -185.296875 Z M 50.671875 -187.578125 L 46.140625 -186.0625 L 46.140625 -184.546875 L 51.4375 -186.0625 Z M 214.046875 -177.734375 C 215.054688 -179.253906 215.054688 -180.515625 214.046875 -181.515625 C 211.523438 -180.515625 210.265625 -179.253906 210.265625 -177.734375 Z M 207.234375 -176.234375 C 207.234375 -177.742188 206.476562 -178.75 204.96875 -179.25 C 202.445312 -179.25 201.1875 -178.242188 201.1875 -176.234375 Z M 33.28125 -174.71875 L 33.28125 -170.171875 L 34.796875 -170.171875 L 34.796875 -174.71875 Z M 140.6875 -166.390625 L 140.6875 -163.375 L 145.21875 -163.375 L 145.21875 -166.390625 Z M 34.03125 -165.640625 C 33.53125 -163.617188 33.023438 -161.851562 32.515625 -160.34375 C 32.015625 -158.832031 31.515625 -157.320312 31.015625 -155.8125 C 30.503906 -154.289062 29.992188 -152.773438 29.484375 -151.265625 C 28.984375 -149.753906 28.734375 -148.242188 28.734375 -146.734375 C 28.734375 -145.722656 28.988281 -144.96875 29.5 -144.46875 C 30.507812 -143.457031 30.757812 -142.695312 30.25 -142.1875 C 27.726562 -141.6875 26.972656 -140.175781 27.984375 -137.65625 C 28.992188 -134.625 28.992188 -132.609375 27.984375 -131.609375 C 27.984375 -131.609375 27.476562 -131.101562 26.46875 -130.09375 C 26.46875 -130.09375 26.34375 -129.960938 26.09375 -129.703125 C 25.84375 -129.453125 25.71875 -129.328125 25.71875 -129.328125 C 24.707031 -128.828125 24.203125 -128.070312 24.203125 -127.0625 C 24.203125 -126.050781 24.453125 -125.296875 24.953125 -124.796875 C 24.953125 -124.796875 25.078125 -124.414062 25.328125 -123.65625 C 25.585938 -122.90625 25.210938 -122.273438 24.203125 -121.765625 L 22.6875 -121.015625 L 21.9375 -121.015625 C 23.445312 -118.492188 23.953125 -116.476562 23.453125 -114.96875 C 21.429688 -109.414062 20.925781 -105.632812 21.9375 -103.625 C 22.4375 -102.613281 22.5625 -101.726562 22.3125 -100.96875 C 22.0625 -100.21875 21.679688 -99.84375 21.171875 -99.84375 C 20.171875 -97.320312 19.671875 -94.296875 19.671875 -90.765625 C 19.671875 -87.234375 19.921875 -84.710938 20.421875 -83.203125 C 18.910156 -82.691406 17.898438 -81.679688 17.390625 -80.171875 L 14.375 -76.390625 L 14.375 -74.125 C 14.375 -67.0625 14.117188 -62.269531 13.609375 -59.75 C 12.597656 -56.21875 11.96875 -53.316406 11.71875 -51.046875 C 11.46875 -48.785156 11.34375 -46.894531 11.34375 -45.375 C 11.34375 -43.863281 11.09375 -42.601562 10.59375 -41.59375 L 9.078125 -38.578125 C 9.078125 -36.054688 9.453125 -32.273438 10.203125 -27.234375 C 10.960938 -22.191406 12.097656 -18.910156 13.609375 -17.390625 C 16.640625 -16.390625 20.171875 -15.890625 24.203125 -15.890625 L 34.03125 -14.375 Z M 6.8125 -139.171875 L 6.8125 -141.4375 L 2.265625 -141.4375 L 2.265625 -139.171875 Z M 6.8125 -126.3125 C 5.800781 -127.320312 4.410156 -127.828125 2.640625 -127.828125 C 0.878906 -127.828125 0 -127.320312 0 -126.3125 L 2.265625 -124.046875 C 3.773438 -124.046875 5.289062 -124.800781 6.8125 -126.3125 Z M 6.046875 -117.234375 C 7.054688 -117.234375 7.5625 -117.738281 7.5625 -118.75 C 4.539062 -119.757812 2.019531 -119.757812 0 -118.75 L 3.78125 -116.484375 Z M 6.046875 -111.1875 C 3.523438 -112.695312 2.265625 -114.207031 2.265625 -115.71875 L 1.515625 -113.453125 C 1.515625 -112.441406 1.257812 -111.6875 0.75 -111.1875 Z M 73.359375 -104.375 C 73.359375 -102.351562 73.863281 -100.335938 74.875 -98.328125 L 74.875 -106.640625 Z M -1.515625 -96.0625 L -1.515625 -93.78125 L 2.265625 -93.78125 L 2.265625 -96.0625 Z M 73.359375 -88.5 L 72.609375 -86.21875 C 72.609375 -85.207031 72.359375 -84.703125 71.859375 -84.703125 C 73.367188 -82.179688 73.617188 -80.921875 72.609375 -80.921875 C 72.109375 -81.429688 71.726562 -81.554688 71.46875 -81.296875 C 71.21875 -81.046875 71.09375 -80.671875 71.09375 -80.171875 C 71.09375 -78.148438 71.34375 -76.507812 71.84375 -75.25 C 72.351562 -73.988281 73.113281 -72.351562 74.125 -70.34375 L 74.875 -96.0625 Z M -2.265625 -64.296875 L -4.53125 -63.53125 L -4.53125 -62.78125 L -1.515625 -63.53125 Z M 101.34375 -3.78125 L 99.84375 -3.78125 L 100.59375 -1.515625 L 102.109375 -1.515625 Z M 101.34375 -3.78125 "/></g></g></g></svg>