<svg xmlns="http://www.w3.org/2000/svg" xmlns:xlink="http://www.w3.org/1999/xlink" width="500" zoomAndPan="magnify" viewBox="0 0 375 374.999991" height="500" preserveAspectRatio="xMidYMid meet" version="1.0"><defs><g/><clipPath id="17b9980191"><path d="M 71.035156 71.035156 L 303.964844 71.035156 L 303.964844 303.964844 L 71.035156 303.964844 Z M 71.035156 71.035156 " clip-rule="nonzero"/></clipPath><clipPath id="c7ff082495"><path d="M 187.5 71.035156 C 123.179688 71.035156 71.035156 123.179688 71.035156 187.5 C 71.035156 251.820312 123.179688 303.964844 187.5 303.964844 C 251.820312 303.964844 303.964844 251.820312 303.964844 187.5 C 303.964844 123.179688 251.820312 71.035156 187.5 71.035156 Z M 187.5 71.035156 " clip-rule="nonzero"/></clipPath><clipPath id="a21a426ed2"><path d="M 71.035156 71.035156 L 303.957031 71.035156 L 303.957031 303.957031 L 71.035156 303.957031 Z M 71.035156 71.035156 " clip-rule="nonzero"/></clipPath><clipPath id="316d4e04cb"><path d="M 187.496094 71.035156 C 123.175781 71.035156 71.035156 123.175781 71.035156 187.496094 C 71.035156 251.816406 123.175781 303.957031 187.496094 303.957031 C 251.816406 303.957031 303.957031 251.816406 303.957031 187.496094 C 303.957031 123.175781 251.816406 71.035156 187.496094 71.035156 Z M 187.496094 71.035156 " clip-rule="nonzero"/></clipPath><clipPath id="6b9c746b04"><path d="M 100.546875 100.546875 L 274.453125 100.546875 L 274.453125 274.453125 L 100.546875 274.453125 Z M 100.546875 100.546875 " clip-rule="nonzero"/></clipPath><clipPath id="6fabfc8738"><path d="M 187.5 100.546875 C 139.476562 100.546875 100.546875 139.476562 100.546875 187.5 C 100.546875 235.523438 139.476562 274.453125 187.5 274.453125 C 235.523438 274.453125 274.453125 235.523438 274.453125 187.5 C 274.453125 139.476562 235.523438 100.546875 187.5 100.546875 Z M 187.5 100.546875 " clip-rule="nonzero"/></clipPath><clipPath id="b275a5e579"><path d="M 107.105469 107.105469 L 267.894531 107.105469 L 267.894531 267.894531 L 107.105469 267.894531 Z M 107.105469 107.105469 " clip-rule="nonzero"/></clipPath><clipPath id="00dc5ec165"><path d="M 187.5 107.105469 C 143.097656 107.105469 107.105469 143.097656 107.105469 187.5 C 107.105469 231.902344 143.097656 267.894531 187.5 267.894531 C 231.902344 267.894531 267.894531 231.902344 267.894531 187.5 C 267.894531 143.097656 231.902344 107.105469 187.5 107.105469 Z M 187.5 107.105469 " clip-rule="nonzero"/></clipPath><clipPath id="fb3ae07a12"><path d="M 84.183594 187.5 L 88.601562 187.5 L 88.601562 191.179688 L 84.183594 191.179688 Z M 80.503906 191.179688 L 92.28125 191.179688 L 92.28125 195.597656 L 80.503906 195.597656 Z M 84.183594 195.597656 L 88.601562 195.597656 L 88.601562 199.277344 L 84.183594 199.277344 Z M 84.183594 195.597656 " clip-rule="nonzero"/></clipPath><clipPath id="75dd10f01a"><path d="M 286.382812 187.5 L 290.800781 187.5 L 290.800781 191.179688 L 286.382812 191.179688 Z M 282.703125 191.179688 L 294.480469 191.179688 L 294.480469 195.597656 L 282.703125 195.597656 Z M 286.382812 195.597656 L 290.800781 195.597656 L 290.800781 199.277344 L 286.382812 199.277344 Z M 286.382812 195.597656 " clip-rule="nonzero"/></clipPath><clipPath id="e162fe7a6d"><path d="M 162 122.019531 L 213 122.019531 L 213 172 L 162 172 Z M 162 122.019531 " clip-rule="nonzero"/></clipPath><clipPath id="ccea8924e8"><path d="M 203 163 L 232.902344 163 L 232.902344 246 L 203 246 Z M 203 163 " clip-rule="nonzero"/></clipPath><clipPath id="31c47bad2a"><path d="M 142.152344 164 L 169 164 L 169 226 L 142.152344 226 Z M 142.152344 164 " clip-rule="nonzero"/></clipPath></defs><g clip-path="url(#17b9980191)"><g clip-path="url(#c7ff082495)"><path fill="#ffffff" d="M 71.035156 71.035156 L 303.964844 71.035156 L 303.964844 303.964844 L 71.035156 303.964844 Z M 71.035156 71.035156 " fill-opacity="1" fill-rule="nonzero"/></g></g><g clip-path="url(#a21a426ed2)"><g clip-path="url(#316d4e04cb)"><path stroke-linecap="butt" transform="matrix(0.75, 0, 0, 0.75, 71.03537, 71.035366)" fill="none" stroke-linejoin="miter" d="M 155.280975 -0.000279314 C 69.520553 -0.000279314 -0.000285314 69.520559 -0.000285314 155.280981 C -0.000285314 241.041403 69.520553 310.562241 155.280975 310.562241 C 241.041397 310.562241 310.562235 241.041403 310.562235 155.280981 C 310.562235 69.520559 241.041397 -0.000279314 155.280975 -0.000279314 Z M 155.280975 -0.000279314 " stroke="#004aad" stroke-width="6" stroke-opacity="1" stroke-miterlimit="4"/></g></g><g clip-path="url(#6b9c746b04)"><g clip-path="url(#6fabfc8738)"><path fill="#ffffff" d="M 100.546875 100.546875 L 274.453125 100.546875 L 274.453125 274.453125 L 100.546875 274.453125 Z M 100.546875 100.546875 " fill-opacity="1" fill-rule="nonzero"/><path stroke-linecap="butt" transform="matrix(0.75, 0, 0, 0.75, 100.546493, 100.546489)" fill="none" stroke-linejoin="miter" d="M 115.938017 0.000515203 C 51.906763 0.000515203 0.000509203 51.906769 0.000509203 115.938023 C 0.000509203 179.969277 51.906763 231.87553 115.938017 231.87553 C 179.969271 231.87553 231.875524 179.969277 231.875524 115.938023 C 231.875524 51.906769 179.969271 0.000515203 115.938017 0.000515203 Z M 115.938017 0.000515203 " stroke="#ffffff" stroke-width="4" stroke-opacity="1" stroke-miterlimit="4"/></g></g><g clip-path="url(#b275a5e579)"><g clip-path="url(#00dc5ec165)"><path fill="#004aad" d="M 107.105469 107.105469 L 267.894531 107.105469 L 267.894531 267.894531 L 107.105469 267.894531 Z M 107.105469 107.105469 " fill-opacity="1" fill-rule="nonzero"/></g></g><g clip-path="url(#fb3ae07a12)"><path fill="#00609e" d="M 80.503906 187.5 L 92.28125 187.5 L 92.28125 199.277344 L 80.503906 199.277344 Z M 80.503906 187.5 " fill-opacity="1" fill-rule="nonzero"/></g><g clip-path="url(#75dd10f01a)"><path fill="#00609e" d="M 282.703125 187.5 L 294.480469 187.5 L 294.480469 199.277344 L 282.703125 199.277344 Z M 282.703125 187.5 " fill-opacity="1" fill-rule="nonzero"/></g><g clip-path="url(#e162fe7a6d)"><path fill="#ffffff" d="M 189.074219 122.480469 C 193.25 122.960938 197.398438 124.605469 199.835938 126.941406 C 201.5625 128.597656 203.519531 130.609375 204.789062 132.742188 C 205.941406 134.636719 206.859375 136.53125 208.011719 138.421875 C 209.738281 141.265625 212.617188 143.160156 212.273438 146.945312 C 212.15625 148.484375 211.351562 149.90625 210.890625 151.445312 C 210.199219 153.339844 208.933594 154.878906 207.78125 156.652344 C 205.363281 160.203125 202.484375 163.757812 199.03125 166.242188 C 197.1875 167.542969 195.691406 168.847656 193.734375 169.792969 C 192.121094 170.386719 190.394531 170.859375 188.78125 171.214844 C 184.980469 172.042969 181.640625 170.386719 178.53125 168.492188 C 176.804688 167.425781 174.960938 166.597656 173.234375 165.53125 C 171.507812 164.464844 170.355469 162.453125 169.203125 160.796875 C 168.28125 159.375 167.246094 157.957031 166.324219 156.535156 C 165.289062 154.878906 164.710938 153.101562 164.019531 151.328125 C 163.445312 149.90625 162.753906 148.011719 162.984375 146.472656 C 163.101562 145.644531 163.558594 145.054688 164.019531 144.34375 C 164.597656 143.515625 165.058594 142.566406 165.632812 141.738281 C 166.441406 140.4375 167.589844 139.132812 168.628906 137.949219 C 172.339844 133.710938 174.226562 127.757812 178.898438 124.414062 C 181.46875 122.574219 185.285156 122.046875 189.074219 122.480469 Z M 189.074219 122.480469 " fill-opacity="1" fill-rule="nonzero"/></g><path fill="#000000" d="M 161.75 231.039062 C 162.425781 229.046875 163.660156 226.777344 163.753906 224.828125 L 176.441406 222.519531 C 178.265625 223.125 180.410156 223.953125 182.523438 224.539062 C 183.8125 224.871094 185.328125 225.363281 186.367188 226.214844 L 212.582031 220.332031 C 213.042969 224.796875 213.316406 229.355469 214.84375 233.496094 C 216.304688 237.441406 216.191406 240.992188 214.722656 244.871094 C 214.5625 245.292969 214.425781 245.707031 214.292969 246.117188 C 210.941406 245.566406 207.152344 246.515625 203.902344 247.105469 C 200.691406 247.683594 197.453125 248.582031 194.195312 248.875 C 192.183594 249.050781 190.230469 248.304688 188.246094 248.429688 C 186.84375 248.515625 185.726562 248.847656 184.285156 248.703125 C 181.875 248.457031 179.453125 248.3125 177.035156 248.1875 C 175.03125 248.082031 172.996094 248.34375 171.078125 247.804688 C 169.0625 247.238281 167.019531 246.761719 165.027344 246.105469 C 163.613281 245.636719 160.726562 244.984375 160.121094 243.433594 C 159.585938 242.074219 160.273438 239.53125 160.417969 238.140625 C 160.671875 235.742188 161.070312 233.355469 161.75 231.039062 Z M 161.75 231.039062 " fill-opacity="1" fill-rule="nonzero"/><path fill="#fed2d3" d="M 179.222656 158.226562 C 181.324219 159.816406 183.285156 161.621094 185.265625 163.320312 C 185.859375 163.792969 186.6875 165.097656 187.398438 165.332031 C 187.988281 165.453125 188.464844 164.859375 188.9375 164.386719 C 190.59375 162.730469 192.621094 161.398438 194.144531 159.628906 C 194.722656 158.960938 195.238281 158.246094 195.71875 157.5 C 195.058594 155.714844 194.855469 150.230469 194.855469 150.230469 L 180.125 150.347656 C 180.125 150.347656 180.351562 154.03125 180.277344 155.949219 C 180.242188 156.816406 179.859375 157.5625 179.222656 158.226562 Z M 179.222656 158.226562 " fill-opacity="1" fill-rule="nonzero"/><path fill="#fed2d3" d="M 162.492188 208.414062 C 163.066406 204.039062 168.117188 192.4375 167.949219 181.980469 C 167.847656 175.714844 169.347656 163.203125 165.527344 163.863281 C 159.46875 164.914062 158.21875 167.605469 155.195312 174.503906 C 152.171875 181.40625 151.90625 188.40625 150.773438 191.976562 C 148.972656 197.636719 146.777344 201.824219 147.585938 208.675781 C 148.390625 215.523438 161.921875 212.789062 162.492188 208.414062 Z M 162.492188 208.414062 " fill-opacity="1" fill-rule="nonzero"/><path fill="#fed2d3" d="M 186.855469 128.527344 C 192.761719 128.527344 198.125 129.886719 198.664062 137.234375 C 199.097656 143.214844 198.886719 147.960938 197.597656 150.664062 C 196.308594 153.363281 191.511719 155.632812 187.664062 155.890625 C 183.898438 156.140625 179.460938 153.335938 178.089844 151.175781 C 176.71875 149.015625 176.164062 137.214844 178.296875 133.542969 C 179.613281 131.269531 181.757812 128.527344 186.855469 128.527344 Z M 186.855469 128.527344 " fill-opacity="1" fill-rule="nonzero"/><path fill="#000000" d="M 202.03125 138.402344 C 202.328125 139.113281 202.300781 140.148438 201.945312 140.800781 C 201.738281 141.183594 201.558594 141.449219 201.203125 141.71875 C 200.90625 141.925781 200.554688 142.191406 200.199219 142.25 C 199.164062 142.367188 198.601562 141.511719 198.511719 140.59375 C 198.394531 139.289062 198.777344 137.898438 199.429688 136.773438 C 199.546875 136.597656 199.636719 136.390625 199.785156 136.242188 " fill-opacity="1" fill-rule="nonzero"/><path fill="#e84e50" d="M 193.726562 153.820312 C 191.453125 155.144531 188.921875 156.101562 186.246094 155.695312 C 185.214844 155.542969 184.207031 155.21875 183.222656 154.882812 C 182.6875 154.699219 182.136719 154.386719 181.582031 154.277344 C 181.3125 154.226562 181.183594 154.550781 181.402344 154.707031 C 181.867188 155.042969 182.550781 155.191406 183.085938 155.378906 C 184.183594 155.757812 185.335938 156.09375 186.496094 156.214844 C 188.929688 156.476562 192.042969 155.710938 193.90625 154.054688 C 194.039062 153.941406 193.871094 153.734375 193.726562 153.820312 Z M 193.726562 153.820312 " fill-opacity="1" fill-rule="nonzero"/><path fill="#fed2d3" d="M 177.914062 142.738281 C 177.171875 141.773438 176.503906 140.710938 175.15625 140.554688 C 173.929688 140.398438 174.03125 142.292969 174.097656 143.082031 C 174.214844 144.144531 174.40625 145.125 175.375 145.765625 C 176.140625 146.296875 177.144531 146.777344 178.089844 146.746094 " fill-opacity="1" fill-rule="nonzero"/><path fill="#e84e50" d="M 175.136719 142.789062 C 175.363281 141.851562 175.921875 143.164062 176.035156 143.4375 C 176.238281 143.945312 176.390625 144.472656 176.582031 144.984375 C 176.6875 144.921875 176.796875 144.859375 176.902344 144.796875 C 176.476562 144.429688 176.054688 144.117188 175.535156 144.507812 C 175.394531 144.617188 175.472656 144.902344 175.667969 144.824219 C 175.789062 144.773438 175.914062 144.695312 176.046875 144.683594 C 176.25 144.664062 176.5 144.953125 176.632812 145.070312 C 176.765625 145.1875 177.023438 145.078125 176.953125 144.882812 C 176.65625 144.0625 176.421875 143.113281 175.886719 142.40625 C 175.480469 141.875 174.773438 142.078125 174.921875 142.789062 C 174.945312 142.898438 175.113281 142.894531 175.136719 142.789062 Z M 175.136719 142.789062 " fill-opacity="1" fill-rule="nonzero"/><path fill="#fed2d3" d="M 197.773438 142.738281 C 198.515625 141.773438 199.183594 140.710938 200.53125 140.554688 C 201.757812 140.398438 201.65625 142.292969 201.589844 143.082031 C 201.476562 144.144531 201.285156 145.125 200.316406 145.765625 C 199.546875 146.296875 198.542969 146.777344 197.597656 146.746094 " fill-opacity="1" fill-rule="nonzero"/><path fill="#e84e50" d="M 200.765625 142.789062 C 200.914062 142.078125 200.207031 141.875 199.800781 142.40625 C 199.265625 143.113281 199.03125 144.0625 198.734375 144.882812 C 198.664062 145.078125 198.921875 145.1875 199.054688 145.070312 C 199.21875 144.929688 199.410156 144.707031 199.640625 144.683594 C 199.757812 144.671875 199.910156 144.78125 200.019531 144.824219 C 200.214844 144.902344 200.292969 144.617188 200.152344 144.507812 C 199.632812 144.117188 199.210938 144.429688 198.785156 144.796875 C 198.890625 144.859375 199 144.921875 199.105469 144.984375 C 199.28125 144.515625 199.429688 144.035156 199.605469 143.5625 C 199.707031 143.289062 200.316406 141.8125 200.550781 142.789062 C 200.574219 142.894531 200.742188 142.898438 200.765625 142.789062 Z M 200.765625 142.789062 " fill-opacity="1" fill-rule="nonzero"/><path fill="#000000" d="M 178.296875 138.816406 C 178.136719 139.527344 177.40625 140.710938 177.644531 141.460938 C 177.761719 141.816406 178.15625 142.011719 178.234375 142.40625 C 178.3125 142.644531 178.433594 143.195312 178.195312 143.394531 C 177.5625 143.867188 176.421875 142.171875 176.105469 141.777344 C 175.589844 141.027344 175.238281 140.078125 175.511719 139.210938 " fill-opacity="1" fill-rule="nonzero"/><path fill="#000000" d="M 196.648438 139.4375 C 196.65625 139.804688 195.699219 139.082031 194.398438 139.199219 C 193.09375 139.316406 190.3125 140.976562 190.078125 140.355469 C 190.078125 140.355469 189.949219 138.738281 190.382812 138.539062 C 190.816406 138.34375 193.027344 137.476562 194.445312 137.75 C 195.867188 138.027344 196.636719 139.070312 196.648438 139.4375 Z M 196.648438 139.4375 " fill-opacity="1" fill-rule="nonzero"/><path fill="#000000" d="M 177.855469 136.035156 C 178.328125 135.027344 178.625 134.023438 179.394531 133.253906 C 179.808594 132.839844 180.164062 132.367188 180.519531 131.890625 C 180.933594 131.359375 181.464844 131.003906 181.9375 130.53125 C 182.292969 130.234375 182.53125 129.878906 182.828125 129.582031 C 183.242188 129.289062 183.714844 129.050781 184.128906 128.8125 C 184.839844 128.398438 185.609375 128.164062 186.378906 127.984375 C 187.738281 127.628906 189.277344 127.394531 190.640625 127.808594 C 191.46875 128.105469 192.175781 128.636719 192.945312 128.992188 C 194.363281 129.644531 195.515625 130.695312 196.578125 131.8125 C 197.117188 132.378906 197.636719 132.960938 198.179688 133.523438 C 198.664062 134.023438 199.441406 134.5 199.789062 135.101562 C 200.03125 135.527344 200.054688 136.042969 200.300781 136.480469 C 200.546875 136.921875 200.800781 137.363281 200.859375 137.878906 C 200.9375 138.589844 200.847656 139.304688 200.699219 140 C 200.523438 140.828125 199.929688 140.945312 199.339844 141.421875 C 198.984375 141.65625 198.925781 141.835938 198.867188 142.25 C 198.867188 142.546875 198.867188 142.839844 198.6875 143.136719 C 198.511719 143.316406 198.15625 143.550781 197.859375 143.550781 C 197.503906 143.492188 197.445312 143.195312 197.445312 142.839844 C 197.328125 142.070312 197.503906 141.480469 197.683594 140.769531 C 197.800781 140.175781 197.742188 139.289062 197.5625 138.816406 C 197.328125 138.105469 196.734375 137.691406 196.144531 137.277344 C 195.019531 136.507812 193.65625 136.035156 193.421875 134.554688 C 193.300781 134.023438 193.300781 133.3125 193.007812 132.839844 C 192.5 132.03125 191.453125 132.414062 190.867188 132.875 C 190.117188 133.464844 189.707031 134.351562 189.042969 135.023438 C 188.03125 136.042969 186.566406 136.082031 185.261719 136.417969 C 184.070312 136.730469 182.542969 137.542969 182.351562 138.5 C 182.160156 139.457031 180.757812 138.347656 181.273438 136.59375 C 181.390625 136.296875 181.703125 135.679688 181.820312 135.441406 C 182.054688 134.910156 181.703125 134.96875 181.347656 135.207031 C 180.457031 135.679688 179.925781 136.507812 179.039062 136.921875 C 178.800781 137.101562 178.089844 137.515625 177.855469 137.335938 C 177.558594 137.101562 177.796875 136.273438 177.855469 136.035156 Z M 177.855469 136.035156 " fill-opacity="1" fill-rule="nonzero"/><path fill="#000000" d="M 178.296875 139.210938 C 178.886719 139.332031 179.457031 139.09375 180.050781 139.09375 C 180.761719 139.09375 181.253906 139.210938 181.847656 139.332031 C 182.792969 139.6875 185.230469 140.910156 185.457031 140.632812 C 185.6875 140.355469 185.371094 138.851562 184.859375 138.496094 C 184.34375 138.140625 180.792969 137.390625 180.164062 137.546875 C 179.53125 137.707031 178.296875 139.210938 178.296875 139.210938 Z M 178.296875 139.210938 " fill-opacity="1" fill-rule="nonzero"/><path fill="#e84e50" d="M 188.09375 142.066406 C 188.601562 143.234375 189.214844 144.375 189.574219 145.597656 C 189.660156 145.886719 189.710938 146.183594 189.734375 146.484375 C 189.792969 147.207031 188.996094 147.011719 188.582031 146.933594 C 188.136719 146.855469 187.789062 146.972656 187.488281 147.285156 C 187.378906 147.398438 187.441406 147.546875 187.570312 147.601562 C 188.027344 147.789062 188.46875 147.640625 188.941406 147.785156 C 189.207031 147.867188 189.53125 147.949219 189.796875 147.839844 C 190.363281 147.597656 190.476562 147.058594 190.464844 146.484375 C 190.429688 144.890625 189.292969 143.140625 188.546875 141.800781 C 188.378906 141.5 187.960938 141.765625 188.09375 142.066406 Z M 188.09375 142.066406 " fill-opacity="1" fill-rule="nonzero"/><path fill="#e84e50" d="M 191.042969 150.125 C 190.222656 149.910156 189.460938 149.898438 188.613281 149.878906 C 187.621094 149.855469 186.496094 149.546875 185.5625 149.945312 C 185.433594 150 185.4375 150.21875 185.5625 150.273438 C 186.378906 150.640625 187.375 150.53125 188.257812 150.5625 C 189.171875 150.589844 190.074219 150.507812 190.984375 150.574219 C 191.246094 150.59375 191.289062 150.191406 191.042969 150.125 Z M 191.042969 150.125 " fill-opacity="1" fill-rule="nonzero"/><path fill="#f6fffe" d="M 195.636719 141.695312 C 195.636719 141.695312 195.1875 141.113281 193.53125 141.238281 C 191.871094 141.367188 191.0625 142.691406 191.0625 142.691406 C 191.0625 142.691406 192.667969 143.472656 193.945312 143.070312 C 195.21875 142.667969 195.636719 141.695312 195.636719 141.695312 Z M 195.636719 141.695312 " fill-opacity="1" fill-rule="nonzero"/><path fill="#000000" d="M 193.472656 143.1875 C 192.558594 143.25 192 142.632812 191.871094 141.890625 C 192.273438 141.582031 192.824219 141.296875 193.53125 141.242188 C 194.109375 141.195312 194.539062 141.238281 194.855469 141.316406 C 194.714844 142.171875 194.597656 143.109375 193.472656 143.1875 Z M 193.472656 143.1875 " fill-opacity="1" fill-rule="nonzero"/><path fill="#000000" d="M 195.636719 141.695312 C 194.582031 141.289062 193.34375 141.191406 192.226562 141.652344 C 191.953125 141.761719 191.0625 142.691406 191.0625 142.691406 C 191.0625 142.691406 191.117188 141.644531 192.246094 141.160156 C 194.867188 140.027344 195.636719 141.695312 195.636719 141.695312 Z M 195.636719 141.695312 " fill-opacity="1" fill-rule="nonzero"/><path fill="#f6fffe" d="M 180.050781 141.695312 C 180.050781 141.695312 180.5 141.113281 182.15625 141.238281 C 183.816406 141.367188 184.628906 142.691406 184.628906 142.691406 C 184.628906 142.691406 183.019531 143.472656 181.742188 143.070312 C 180.46875 142.667969 180.050781 141.695312 180.050781 141.695312 Z M 180.050781 141.695312 " fill-opacity="1" fill-rule="nonzero"/><path fill="#000000" d="M 182.214844 143.1875 C 183.128906 143.25 183.691406 142.632812 183.816406 141.890625 C 183.414062 141.582031 182.863281 141.296875 182.15625 141.242188 C 181.578125 141.195312 181.148438 141.238281 180.832031 141.316406 C 180.972656 142.171875 181.089844 143.109375 182.214844 143.1875 Z M 182.214844 143.1875 " fill-opacity="1" fill-rule="nonzero"/><path fill="#000000" d="M 180.050781 141.695312 C 181.105469 141.289062 182.34375 141.191406 183.460938 141.652344 C 183.734375 141.761719 184.628906 142.691406 184.628906 142.691406 C 184.628906 142.691406 184.570312 141.644531 183.441406 141.160156 C 180.820312 140.027344 180.050781 141.695312 180.050781 141.695312 Z M 180.050781 141.695312 " fill-opacity="1" fill-rule="nonzero"/><path fill="#ffffff" d="M 202.570312 160.550781 C 201.1875 161.171875 198.667969 163.042969 196.144531 163.992188 C 193.460938 165.097656 190.617188 165.726562 187.9375 166.199219 C 184.464844 166.675781 182.699219 166.542969 179.570312 164.914062 C 175.898438 162.996094 174.0625 161.054688 174.0625 161.054688 C 172.640625 160.898438 166.15625 162.886719 164.734375 163.203125 C 163.3125 163.675781 160.078125 164.945312 160.234375 165.578125 C 160.394531 166.367188 161.105469 167.9375 161.105469 168.726562 C 161.261719 170.777344 162.523438 177.773438 161.882812 179.617188 C 158.851562 188.332031 163.257812 205.132812 162.546875 208.273438 C 161.429688 213.21875 161.460938 219.53125 162.015625 224.570312 C 162.363281 227.722656 162.882812 230.945312 165.789062 232.730469 C 169.796875 235.183594 175.636719 235.808594 180.210938 235.804688 C 183.980469 235.800781 187.316406 237.5 190.890625 238.683594 C 195.78125 240.296875 199.28125 240.179688 204.226562 239.429688 C 206.253906 239.125 208.304688 239.050781 210.351562 239.0625 C 212.007812 239.070312 214.898438 239.789062 216.433594 239.242188 C 218.5 238.507812 217.085938 235.191406 216.71875 233.429688 C 215.96875 229.824219 214.300781 225.613281 214.292969 221.917969 C 214.136719 220.023438 214.136719 217.96875 213.976562 216.078125 C 213.855469 212.890625 212.96875 209.804688 212.574219 206.652344 C 212.1875 203.566406 212.207031 200.441406 211.847656 197.351562 C 211.464844 194.066406 210.546875 191.039062 210.753906 187.691406 C 210.988281 183.9375 211.769531 180.230469 211.769531 176.460938 C 211.769531 174.882812 211.453125 173.304688 211.453125 171.726562 C 211.453125 169.199219 216.355469 167.078125 215.882812 165.578125 C 215.410156 164.078125 203.953125 159.925781 202.570312 160.550781 Z M 202.570312 160.550781 " fill-opacity="1" fill-rule="nonzero"/><path fill="#fed2d3" d="M 212.765625 166.476562 C 215.320312 166.382812 217.316406 166.003906 221.070312 172.613281 C 224.824219 179.21875 225.414062 196.253906 225.113281 200.457031 C 224.8125 204.660156 225.9375 210.367188 225.925781 214.234375 C 225.90625 221.414062 221.007812 248.480469 220.101562 249.507812 C 219.199219 250.539062 215.515625 252.941406 214.3125 252.941406 C 213.109375 252.941406 213.386719 252.34375 211.886719 252.492188 C 210.386719 252.640625 209.507812 252.492188 209.359375 251.441406 C 209.359375 251.441406 207.707031 251.890625 206.203125 251.589844 C 204.703125 251.289062 206.070312 250.496094 207.121094 247.34375 C 208.171875 244.191406 210.277344 241.460938 212.765625 238.5 C 215.25 235.542969 209.957031 215.855469 210.859375 210.375 C 211.761719 204.894531 207.105469 191.980469 206.355469 186.273438 C 205.605469 180.570312 210.207031 166.566406 212.765625 166.476562 Z M 212.765625 166.476562 " fill-opacity="1" fill-rule="nonzero"/><path fill="#e84e50" d="M 210.765625 247.429688 C 210.382812 247.851562 210.058594 248.304688 209.738281 248.777344 C 209.453125 249.203125 208.886719 249.710938 208.921875 250.253906 C 208.941406 250.617188 209.347656 250.789062 209.621094 250.546875 C 209.941406 250.257812 210.199219 249.785156 210.449219 249.425781 C 210.789062 248.9375 210.960938 248.328125 211.261719 247.808594 C 211.433594 247.503906 211.007812 247.15625 210.765625 247.429688 Z M 210.765625 247.429688 " fill-opacity="1" fill-rule="nonzero"/><path fill="#e84e50" d="M 214.105469 250.175781 C 213.859375 250.46875 213.636719 250.75 213.34375 251.007812 C 213.085938 251.238281 212.675781 251.453125 212.539062 251.78125 C 212.464844 251.953125 212.546875 252.179688 212.765625 252.175781 C 213.183594 252.167969 213.550781 251.773438 213.839844 251.507812 C 214.121094 251.253906 214.628906 250.800781 214.585938 250.375 C 214.5625 250.15625 214.277344 249.964844 214.105469 250.175781 Z M 214.105469 250.175781 " fill-opacity="1" fill-rule="nonzero"/><path fill="#fed2d3" d="M 147.648438 207.164062 C 147.363281 209.816406 149.148438 218.261719 151.691406 222.398438 C 154.234375 226.53125 159.457031 233.445312 160.375 238.964844 C 160.671875 240.746094 169.617188 240.457031 170.917969 239.628906 C 172.21875 238.796875 170.058594 234.492188 168.421875 232.335938 C 166.789062 230.183594 165.53125 212.929688 162.546875 208.273438 C 159.5625 203.617188 147.648438 207.164062 147.648438 207.164062 Z M 147.648438 207.164062 " fill-opacity="1" fill-rule="nonzero"/><path fill="#ffffff" d="M 172.082031 237.867188 C 169.027344 240.515625 164.082031 239.859375 160.445312 238.710938 C 160.203125 238.636719 159.980469 238.980469 160.1875 239.148438 C 161.972656 240.605469 164.402344 240.546875 166.597656 240.546875 C 169.253906 240.546875 170.992188 240.628906 172.519531 238.203125 C 172.695312 237.921875 172.3125 237.667969 172.082031 237.867188 Z M 172.082031 237.867188 " fill-opacity="1" fill-rule="nonzero"/><g clip-path="url(#ccea8924e8)"><path fill="#ffffff" d="M 212.242188 163.203125 C 215.082031 164.621094 217.925781 166.992188 219.976562 169.359375 C 221.554688 171.09375 223.132812 173.144531 224.238281 175.199219 C 225.183594 176.933594 225.816406 178.984375 226.605469 180.722656 C 227.867188 184.035156 229.128906 187.191406 229.128906 190.824219 C 229.128906 192.558594 229.128906 193.980469 228.339844 195.558594 C 227.144531 198.1875 227.878906 200.945312 229.464844 203.21875 C 230.554688 204.777344 232.3125 206.417969 232.554688 208.386719 C 232.855469 210.824219 230.605469 211.914062 230.078125 214.023438 C 229.761719 215.601562 230.234375 217.65625 230.867188 219.074219 C 231.5 220.496094 231.65625 222.390625 231.183594 223.96875 C 230.550781 226.019531 229.289062 227.28125 228.183594 229.019531 C 227.238281 230.4375 227.078125 232.332031 226.132812 233.753906 C 225.816406 234.226562 224.554688 235.332031 224.394531 235.804688 C 224.394531 236.4375 225.5 237.226562 225.5 238.015625 C 225.5 238.960938 224.238281 240.382812 223.921875 241.171875 C 223.449219 242.117188 222.816406 243.222656 222.816406 244.328125 C 220.921875 244.800781 218.871094 244.800781 216.976562 244.960938 C 215.398438 245.117188 213.664062 245.433594 212.085938 244.800781 C 211.296875 244.484375 210.664062 244.011719 210.03125 243.222656 C 209.558594 242.75 208.136719 241.644531 207.824219 240.855469 C 207.507812 240.066406 208.613281 239.277344 208.929688 238.332031 C 209.085938 237.542969 208.929688 236.753906 209.242188 235.964844 C 209.558594 235.332031 210.347656 234.859375 210.664062 234.070312 C 210.980469 233.121094 210.191406 232.015625 210.03125 231.070312 C 209.558594 229.332031 208.769531 227.597656 207.980469 225.863281 C 207.347656 224.125 206.558594 222.546875 206.246094 220.8125 C 205.929688 219.074219 206.085938 217.179688 206.085938 215.445312 C 206.085938 212.128906 207.507812 208.5 206.085938 205.5 C 203.839844 200.757812 203.378906 194.332031 203.582031 189.179688 C 203.75 184.84375 202.753906 180.515625 203.269531 176.183594 C 203.460938 174.601562 203.820312 172.992188 204.628906 171.609375 C 205.53125 170.070312 206.925781 169.503906 208.109375 168.273438 C 208.871094 167.476562 209.234375 166.382812 210.113281 165.699219 C 210.15625 165.75 210.191406 165.808594 210.210938 165.875 C 210.425781 165.664062 212.207031 163.183594 212.242188 163.203125 Z M 212.242188 163.203125 " fill-opacity="1" fill-rule="nonzero"/></g><g clip-path="url(#31c47bad2a)"><path fill="#ffffff" d="M 161.578125 164.621094 C 158.578125 165.886719 156.054688 169.199219 154 171.566406 C 152.898438 173.144531 151.949219 174.566406 151.476562 176.460938 C 151.003906 178.195312 149.898438 179.773438 149.265625 181.511719 C 148.160156 184.667969 148.003906 188.140625 147.6875 191.453125 C 147.375 195.398438 144.53125 198.558594 143.585938 202.1875 C 143.113281 203.765625 142.164062 206.132812 143.269531 207.554688 C 143.902344 208.34375 145.007812 208.816406 145.480469 209.761719 C 145.792969 210.867188 145.164062 211.5 144.691406 212.289062 C 143.902344 213.707031 142.953125 215.761719 144.214844 216.867188 C 145.480469 218.285156 147.6875 218.757812 148.792969 220.179688 C 149.265625 220.8125 149.109375 221.601562 149.582031 222.230469 C 150.054688 223.335938 150.84375 223.808594 151.632812 224.597656 C 152.265625 225.230469 152.582031 226.019531 153.371094 225.863281 C 154.316406 225.703125 155.582031 224.914062 156.371094 224.597656 C 160 223.179688 163.789062 221.917969 167.101562 219.546875 C 168.679688 218.445312 167.417969 216.078125 166.628906 214.65625 C 165.839844 212.917969 164.894531 211.5 164.894531 209.605469 C 164.734375 207.394531 166.3125 205.976562 167.261719 204.238281 C 168.050781 202.503906 168.363281 201.082031 168.363281 199.1875 C 168.363281 197.136719 166.472656 195.398438 165.839844 193.507812 C 165.523438 191.929688 165.683594 189.875 166.15625 188.296875 C 166.628906 186.5625 167.734375 185.140625 168.207031 183.246094 C 168.523438 181.511719 168.679688 179.773438 168.679688 177.878906 C 168.679688 175.355469 168.996094 173.304688 167.890625 170.9375 C 167.261719 169.671875 166.628906 168.566406 165.839844 167.464844 C 165.367188 166.675781 164.894531 165.570312 164.105469 165.253906 Z M 161.578125 164.621094 " fill-opacity="1" fill-rule="nonzero"/></g><path fill="#000000" d="M 220.855469 238.554688 C 219.414062 238.835938 218.21875 239.617188 216.714844 239.730469 C 215.121094 239.847656 213.671875 238.683594 212.171875 238.332031 C 211.816406 238.25 211.589844 238.742188 211.921875 238.925781 C 213.367188 239.742188 215.039062 240.445312 216.714844 240.515625 C 218.210938 240.578125 219.726562 239.589844 221.054688 239.027344 C 221.339844 238.90625 221.125 238.5 220.855469 238.554688 Z M 220.855469 238.554688 " fill-opacity="1" fill-rule="nonzero"/><path fill="#000000" d="M 214.746094 183.496094 C 211.875 187.28125 209.902344 191.492188 209.378906 196.21875 C 209.128906 198.453125 208.753906 200.902344 209.714844 203.035156 C 210.179688 204.066406 210.785156 204.976562 211.394531 205.921875 C 212.640625 207.847656 211.800781 210.121094 210.441406 211.726562 C 209.636719 212.679688 208.417969 213.632812 208.804688 215.074219 C 209.492188 217.644531 211.347656 219.273438 211.550781 222.105469 C 211.769531 225.171875 209.6875 227.675781 209.199219 230.566406 C 209.078125 231.28125 209.253906 232.039062 209.378906 232.742188 C 209.667969 234.367188 209.5 235.988281 209.691406 237.621094 C 209.765625 238.25 210.753906 238.265625 210.691406 237.621094 C 210.570312 236.40625 210.597656 235.203125 210.570312 233.984375 C 210.539062 232.65625 210.039062 231.5 210.265625 230.132812 C 210.640625 227.859375 212.199219 225.90625 212.421875 223.535156 C 212.609375 221.546875 212.296875 219.617188 211.300781 217.871094 C 210.566406 216.582031 209.195312 215.328125 209.945312 213.601562 C 210.402344 212.554688 211.667969 211.667969 212.226562 210.578125 C 212.847656 209.375 213.207031 207.738281 212.621094 206.445312 C 211.480469 203.9375 209.90625 202.316406 209.890625 199.34375 C 209.867188 193.582031 211.980469 188.441406 215.164062 183.738281 C 215.339844 183.476562 214.929688 183.257812 214.746094 183.496094 Z M 214.746094 183.496094 " fill-opacity="1" fill-rule="nonzero"/><path fill="#000000" d="M 218.476562 207.382812 C 217.171875 207.214844 215.636719 208.035156 214.507812 208.664062 C 213.222656 209.378906 212.308594 210.636719 210.917969 211.226562 C 211.125 211.386719 211.335938 211.546875 211.546875 211.707031 C 212.089844 209.839844 213.929688 208.265625 215.261719 206.917969 C 216.097656 206.066406 218.261719 205.054688 217.902344 203.609375 C 217.835938 203.355469 217.445312 203.285156 217.324219 203.53125 C 216.605469 205.023438 214.828125 206.046875 213.691406 207.242188 C 212.554688 208.441406 211.175781 209.84375 210.71875 211.480469 C 210.613281 211.875 211.023438 212.105469 211.347656 211.964844 C 212.296875 211.550781 213.105469 210.84375 213.898438 210.191406 C 215.058594 209.238281 216.890625 207.980469 218.476562 207.957031 C 218.859375 207.953125 218.835938 207.425781 218.476562 207.382812 Z M 218.476562 207.382812 " fill-opacity="1" fill-rule="nonzero"/><path fill="#000000" d="M 163.074219 180.789062 C 163.378906 182.503906 164.597656 183.90625 165.242188 185.511719 C 166.039062 187.484375 165.714844 190.039062 165.914062 192.132812 C 166.226562 195.429688 164.171875 198.328125 162.863281 201.257812 C 162.773438 201.460938 162.753906 201.730469 162.945312 201.890625 C 163.875 202.667969 164.671875 203.601562 165.359375 204.597656 C 167.035156 207.03125 166.324219 208.960938 164.796875 211.195312 C 164.011719 212.34375 163.796875 213.609375 164.371094 214.878906 C 164.621094 215.433594 168.328125 218.101562 167.132812 218.460938 C 166.589844 218.625 166.75 219.332031 167.261719 219.390625 C 168.40625 219.523438 168.632812 218.644531 168.4375 217.664062 C 167.960938 215.289062 164.144531 215.269531 165.457031 212.269531 C 166.234375 210.484375 167.824219 209.359375 167.515625 207.195312 C 167.242188 205.308594 166.222656 203.773438 164.972656 202.378906 C 164.613281 201.980469 164.21875 201.613281 163.816406 201.261719 C 163.511719 200.996094 163.644531 202.070312 163.863281 201.558594 C 164.011719 201.21875 164.164062 200.878906 164.3125 200.539062 C 165.109375 198.730469 166.257812 196.921875 166.796875 195.023438 C 167.417969 192.828125 166.691406 189.710938 166.441406 187.46875 C 166.152344 184.8125 164.527344 183.039062 163.554688 180.65625 C 163.433594 180.363281 163.019531 180.46875 163.074219 180.789062 Z M 163.074219 180.789062 " fill-opacity="1" fill-rule="nonzero"/><path fill="#000000" d="M 163.613281 201.886719 C 162.933594 201.292969 162.28125 200.757812 161.453125 200.375 C 160.859375 200.101562 159.878906 199.75 159.292969 200.164062 C 159.222656 200.214844 159.183594 200.335938 159.261719 200.398438 C 159.78125 200.804688 160.574219 200.765625 161.195312 200.988281 C 161.960938 201.265625 162.6875 201.769531 163.371094 202.203125 C 163.5625 202.324219 163.785156 202.039062 163.613281 201.886719 Z M 163.613281 201.886719 " fill-opacity="1" fill-rule="nonzero"/><path fill="#000000" d="M 159.417969 216.914062 C 158.46875 217.890625 157.210938 218.417969 155.984375 218.953125 C 155.375 219.21875 154.75 219.496094 154.121094 219.710938 C 152.953125 220.109375 151.851562 219.457031 150.832031 218.988281 C 150.59375 218.878906 150.269531 219.117188 150.441406 219.375 C 151.363281 220.765625 153.382812 221.066406 154.867188 220.421875 C 156.667969 219.636719 158.765625 218.980469 160.007812 217.371094 C 160.277344 217.027344 159.710938 216.613281 159.417969 216.914062 Z M 159.417969 216.914062 " fill-opacity="1" fill-rule="nonzero"/><path fill="#000000" d="M 151.382812 206.113281 C 149.511719 206.691406 147.199219 207.53125 145.953125 209.132812 C 145.667969 209.496094 146.042969 210.160156 146.496094 209.832031 C 147.222656 209.308594 147.875 208.707031 148.628906 208.210938 C 149.542969 207.617188 150.550781 207.167969 151.570312 206.785156 C 151.980469 206.628906 151.820312 205.980469 151.382812 206.113281 Z M 151.382812 206.113281 " fill-opacity="1" fill-rule="nonzero"/><path fill="#000000" d="M 229.3125 215.289062 C 229.285156 214.445312 228.574219 213.875 227.957031 213.402344 C 227.515625 213.0625 227.035156 212.773438 226.566406 212.476562 C 226.214844 212.253906 225.828125 211.941406 225.425781 211.832031 C 225.152344 211.757812 224.949219 212.050781 225.074219 212.289062 C 225.378906 212.867188 226.25 213.230469 226.78125 213.566406 C 227.488281 214.015625 228.355469 214.542969 228.644531 215.378906 C 228.765625 215.726562 229.328125 215.6875 229.3125 215.289062 Z M 229.3125 215.289062 " fill-opacity="1" fill-rule="nonzero"/><path fill="#000000" d="M 226.050781 195.757812 C 224.8125 195.492188 223.605469 196.324219 222.457031 196.652344 C 222.296875 196.699219 222.28125 196.953125 222.457031 196.988281 C 223.695312 197.238281 224.742188 196.382812 225.972656 196.316406 C 226.28125 196.300781 226.378906 195.828125 226.050781 195.757812 Z M 226.050781 195.757812 " fill-opacity="1" fill-rule="nonzero"/><path fill="#000000" d="M 203.710938 220.898438 C 202.824219 223.515625 199.640625 225.25 197.4375 226.707031 C 194.738281 228.492188 191.71875 229.101562 188.71875 230.132812 C 188.402344 230.242188 188.433594 230.789062 188.804688 230.753906 C 192.257812 230.421875 195.632812 228.917969 198.476562 226.980469 C 200.640625 225.5 203.453125 223.683594 204.203125 221.035156 C 204.292969 220.714844 203.816406 220.589844 203.710938 220.898438 Z M 203.710938 220.898438 " fill-opacity="1" fill-rule="nonzero"/><path fill="#000000" d="M 193.105469 165.527344 C 194.46875 167.914062 196.074219 170.304688 197.179688 172.816406 C 197.839844 174.320312 198.507812 175.796875 198.953125 177.382812 C 199.589844 179.667969 198.761719 181.203125 197.417969 183.015625 C 195.976562 184.960938 195 186.757812 195.609375 189.210938 C 196.164062 191.453125 199.078125 193.648438 198.765625 196.03125 C 198.722656 196.351562 199.210938 196.542969 199.410156 196.296875 C 200.433594 195.027344 198.8125 193.09375 198.132812 192.003906 C 196.785156 189.84375 195.6875 187.804688 196.96875 185.308594 C 197.65625 183.960938 199.023438 182.875 199.554688 181.46875 C 200.574219 178.765625 199.523438 176.183594 198.394531 173.6875 C 197.066406 170.757812 195.335938 167.941406 193.5 165.296875 C 193.332031 165.054688 192.957031 165.265625 193.105469 165.527344 Z M 193.105469 165.527344 " fill-opacity="1" fill-rule="nonzero"/><path fill="#000000" d="M 198.675781 192.332031 C 200.429688 192.332031 200.429688 195.050781 198.675781 195.050781 C 196.925781 195.050781 196.925781 192.332031 198.675781 192.332031 Z M 198.675781 192.332031 " fill-opacity="1" fill-rule="nonzero"/><path fill="#000000" d="M 180.96875 164.425781 C 179.15625 166.183594 178.167969 168.273438 177.429688 170.660156 C 176.484375 173.714844 175.304688 176.75 174.886719 179.933594 C 174.519531 182.722656 174.792969 184.742188 175.8125 187.320312 C 176.363281 188.707031 176.285156 190.363281 176.203125 191.824219 C 176.113281 193.429688 175.066406 194.601562 174.710938 196.105469 C 174.628906 196.457031 175.085938 196.636719 175.28125 196.347656 C 176.539062 194.472656 177.101562 192.757812 177.136719 190.515625 C 177.179688 187.914062 175.765625 185.890625 175.558594 183.382812 C 175.300781 180.28125 176.273438 177.136719 177.25 174.246094 C 178.375 170.910156 179.066406 167.605469 181.367188 164.820312 C 181.59375 164.546875 181.234375 164.167969 180.96875 164.425781 Z M 180.96875 164.425781 " fill-opacity="1" fill-rule="nonzero"/><path fill="#000000" d="M 176.328125 191.84375 C 178.078125 191.84375 178.078125 194.558594 176.328125 194.558594 C 174.574219 194.558594 174.574219 191.84375 176.328125 191.84375 Z M 176.328125 191.84375 " fill-opacity="1" fill-rule="nonzero"/><path fill="#000000" d="M 201.761719 161.398438 C 200.445312 161.714844 199.589844 162.605469 198.480469 163.347656 C 197.207031 164.203125 195.84375 164.882812 194.597656 165.78125 C 192.695312 167.15625 190.207031 168.605469 188.804688 170.484375 C 187.046875 172.839844 185.03125 169.625 184.144531 168.5625 C 183.203125 167.425781 182.148438 166.484375 180.992188 165.570312 C 178.640625 163.714844 175.875 162.203125 173.0625 161.191406 C 172.515625 160.996094 172.285156 161.863281 172.824219 162.054688 C 176.363281 163.324219 179.839844 165.472656 182.546875 168.085938 C 183.941406 169.433594 185.207031 172.246094 187.511719 172.246094 C 188.25 172.246094 188.695312 171.957031 189.171875 171.441406 C 190.292969 170.246094 191.578125 169.257812 192.820312 168.171875 C 194.0625 167.085938 195.464844 166.082031 196.851562 165.191406 C 198.410156 164.1875 200.207031 162.558594 201.886719 161.847656 C 202.15625 161.734375 202.066406 161.328125 201.761719 161.398438 Z M 201.761719 161.398438 " fill-opacity="1" fill-rule="nonzero"/><path fill="#ffffff" d="M 171.523438 146.867188 C 171.875 147.457031 172.230469 148.523438 172.824219 148.878906 C 173.179688 147.8125 172.941406 146.628906 173.179688 145.566406 C 173.296875 144.378906 174.246094 143.078125 175.074219 142.132812 C 176.019531 141.066406 177.320312 140.828125 178.386719 139.882812 C 179.335938 139.171875 179.453125 137.515625 179.925781 136.449219 C 180.519531 135.265625 181.109375 133.964844 181.9375 133.136719 C 182.886719 131.953125 184.304688 131.242188 185.609375 130.53125 C 186.566406 129.894531 187.886719 129.40625 188.535156 129.507812 C 189.183594 129.609375 191.257812 131.695312 192 132.898438 C 193.183594 134.910156 195.671875 135.621094 197.5625 136.921875 C 199.457031 138.105469 202.300781 139.882812 202.535156 142.367188 C 202.65625 144.261719 201.351562 146.511719 200.761719 148.289062 C 203.71875 148.40625 205.96875 145.683594 206.5625 142.960938 C 207.269531 139.882812 205.96875 136.449219 203.71875 134.320312 C 202.535156 133.136719 200.996094 132.308594 199.933594 131.125 C 198.75 129.9375 198.039062 128.519531 196.617188 127.570312 C 194.367188 126.03125 191.410156 126.386719 188.804688 126.152344 C 187.621094 126.03125 186.320312 125.796875 185.015625 125.914062 C 183.714844 126.03125 182.414062 126.625 181.109375 127.097656 C 178.269531 128.164062 176.257812 130.058594 174.601562 132.542969 C 173.769531 133.726562 173.652344 134.792969 173.179688 136.09375 C 172.707031 137.277344 171.757812 138.34375 170.929688 139.292969 C 168.796875 141.65625 170.21875 144.378906 171.523438 146.867188 Z M 171.523438 146.867188 " fill-opacity="1" fill-rule="nonzero"/><path fill="#000000" d="M 196.5 156.773438 C 198.1875 155.402344 199.28125 153.214844 200.714844 151.59375 C 202.242188 149.863281 203.710938 148.023438 204.6875 145.914062 C 206.199219 142.644531 204.117188 139.855469 201.097656 138.59375 C 200.882812 138.503906 200.714844 138.832031 200.875 138.980469 C 201.757812 139.789062 202.816406 140.339844 203.675781 141.191406 C 205.730469 143.230469 203.929688 146.136719 202.667969 147.996094 C 201.480469 149.746094 200.109375 151.316406 198.804688 152.984375 C 197.917969 154.121094 197.222656 155.449219 196.261719 156.53125 C 196.113281 156.699219 196.332031 156.910156 196.5 156.773438 Z M 196.5 156.773438 " fill-opacity="1" fill-rule="nonzero"/><path fill="#000000" d="M 172.261719 145.167969 C 169.027344 150.597656 174.363281 155.054688 178.273438 158.183594 C 178.511719 158.375 178.839844 158.144531 178.699219 157.855469 C 177.664062 155.773438 175.328125 154.984375 174.074219 153.191406 C 173.445312 152.292969 172.894531 151.421875 172.402344 150.4375 C 171.460938 148.558594 172.375 147.125 172.699219 145.351562 C 172.746094 145.089844 172.40625 144.921875 172.261719 145.167969 Z M 172.261719 145.167969 " fill-opacity="1" fill-rule="nonzero"/><path fill="#000000" d="M 206.6875 140.980469 C 207.167969 141.765625 207.523438 142.609375 207.792969 143.488281 C 208.136719 144.625 207.707031 145.457031 207.058594 146.347656 C 206.914062 146.542969 207.199219 146.832031 207.394531 146.6875 C 209.445312 145.167969 208.324219 142.355469 207.03125 140.714844 C 206.875 140.515625 206.5625 140.769531 206.6875 140.980469 Z M 206.6875 140.980469 " fill-opacity="1" fill-rule="nonzero"/><path fill="#000000" d="M 167.09375 144.410156 C 165.851562 145.601562 165.707031 148.085938 166.308594 149.617188 C 166.410156 149.875 166.792969 149.847656 166.800781 149.550781 C 166.824219 148.800781 166.753906 148.050781 166.785156 147.296875 C 166.824219 146.34375 167.210938 145.535156 167.488281 144.640625 C 167.558594 144.40625 167.257812 144.25 167.09375 144.410156 Z M 167.09375 144.410156 " fill-opacity="1" fill-rule="nonzero"/><path fill="#ffffff" d="M 190.3125 235.4375 C 189.777344 237.289062 190.238281 239.441406 189.894531 241.355469 C 189.832031 241.707031 186.355469 241.347656 185.804688 241.296875 C 185.945312 241.4375 186.082031 241.574219 186.222656 241.714844 C 186.292969 240.480469 186.363281 239.25 186.378906 238.015625 C 186.386719 236.988281 186.742188 234.054688 185.394531 233.714844 C 185.027344 233.625 184.800781 234.054688 185.039062 234.328125 C 185.476562 234.828125 185.441406 236.410156 185.46875 236.972656 C 185.496094 237.578125 185.480469 238.191406 185.46875 238.796875 C 185.445312 239.769531 185.414062 240.742188 185.386719 241.714844 C 185.378906 241.953125 185.582031 242.117188 185.804688 242.132812 C 186.667969 242.183594 187.535156 242.214844 188.398438 242.226562 C 188.945312 242.230469 190.023438 242.367188 190.453125 241.910156 C 190.898438 241.4375 190.75 240.15625 190.769531 239.585938 C 190.816406 238.296875 191.054688 236.6875 190.699219 235.4375 C 190.644531 235.246094 190.367188 235.246094 190.3125 235.4375 Z M 190.3125 235.4375 " fill-opacity="1" fill-rule="nonzero"/><path fill="#000000" d="M 166.414062 186.402344 C 166.585938 182.519531 165.78125 174.832031 161.003906 173.726562 C 160.796875 173.679688 160.636719 173.929688 160.796875 174.085938 C 162.566406 175.847656 163.984375 176.96875 164.867188 179.433594 C 165.664062 181.660156 165.757812 184.066406 165.894531 186.402344 C 165.917969 186.734375 166.398438 186.738281 166.414062 186.402344 Z M 166.414062 186.402344 " fill-opacity="1" fill-rule="nonzero"/><g fill="#00609e" fill-opacity="1"><g transform="translate(109.347625, 140.96054)"><g><path d="M -7.78125 -21.875 C -7.0625 -22.84375 -6.195312 -23.535156 -5.1875 -23.953125 C -4.1875 -24.378906 -3.144531 -24.507812 -2.0625 -24.34375 C -0.988281 -24.1875 0.0234375 -23.753906 0.984375 -23.046875 L 1.296875 -22.8125 C 2.253906 -22.101562 2.96875 -21.25 3.4375 -20.25 C 3.90625 -19.257812 4.078125 -18.222656 3.953125 -17.140625 C 3.835938 -16.054688 3.421875 -15.03125 2.703125 -14.0625 L -0.046875 -10.359375 L 4.953125 -6.640625 L 1.234375 -1.671875 L -14.25 -13.203125 Z M -3.671875 -13.0625 L -2.15625 -15.109375 C -1.757812 -15.628906 -1.597656 -16.125 -1.671875 -16.59375 C -1.753906 -17.0625 -2.023438 -17.46875 -2.484375 -17.8125 L -2.671875 -17.953125 C -3.148438 -18.304688 -3.613281 -18.445312 -4.0625 -18.375 C -4.519531 -18.300781 -4.945312 -18.003906 -5.34375 -17.484375 L -6.859375 -15.4375 Z M -3.671875 -13.0625 "/></g></g></g><g fill="#00609e" fill-opacity="1"><g transform="translate(120.187602, 125.950481)"><g><path d="M 11.3125 -9.875 L 8.921875 -11.390625 L 3.828125 -6.9375 L 4.984375 -4.359375 L 0.21875 -0.1875 L -7.1875 -19.359375 L -1.75 -24.109375 L 16.25 -14.1875 Z M 1.9375 -11.0625 L 5.078125 -13.796875 L -0.953125 -17.640625 L -1.03125 -17.578125 Z M 1.9375 -11.0625 "/></g></g></g><g fill="#00609e" fill-opacity="1"><g transform="translate(135.134154, 112.634261)"><g><path d="M 3.921875 -24.09375 C 4.773438 -24.5625 5.65625 -24.804688 6.5625 -24.828125 C 7.46875 -24.859375 8.304688 -24.664062 9.078125 -24.25 C 9.847656 -23.84375 10.445312 -23.242188 10.875 -22.453125 C 12 -20.367188 11.765625 -18.546875 10.171875 -16.984375 L 10.21875 -16.890625 C 12.644531 -17.554688 14.488281 -16.722656 15.75 -14.390625 C 16.226562 -13.503906 16.429688 -12.597656 16.359375 -11.671875 C 16.296875 -10.753906 15.988281 -9.898438 15.4375 -9.109375 C 14.894531 -8.328125 14.171875 -7.6875 13.265625 -7.1875 L 1.828125 -0.984375 L -7.375 -17.96875 Z M 1.671875 -14.3125 L 5.421875 -16.34375 C 5.773438 -16.53125 6 -16.816406 6.09375 -17.203125 C 6.195312 -17.585938 6.144531 -17.96875 5.9375 -18.34375 L 5.8125 -18.59375 C 5.613281 -18.957031 5.320312 -19.195312 4.9375 -19.3125 C 4.5625 -19.4375 4.203125 -19.40625 3.859375 -19.21875 L 0.109375 -17.1875 Z M 5.140625 -7.890625 L 9.28125 -10.140625 C 9.644531 -10.328125 9.875 -10.613281 9.96875 -11 C 10.070312 -11.394531 10.019531 -11.78125 9.8125 -12.15625 L 9.671875 -12.390625 C 9.460938 -12.773438 9.171875 -13.03125 8.796875 -13.15625 C 8.429688 -13.28125 8.066406 -13.25 7.703125 -13.0625 L 3.5625 -10.8125 Z M 5.140625 -7.890625 "/></g></g></g><g fill="#00609e" fill-opacity="1"><g transform="translate(152.811088, 103.031675)"><g><path d="M -3.5625 -19.09375 L 2.390625 -20.875 L 6.515625 -7.109375 L 16 -9.96875 L 17.421875 -5.234375 L 1.984375 -0.59375 Z M -3.5625 -19.09375 "/></g></g></g><g fill="#00609e" fill-opacity="1"><g transform="translate(168.956464, 97.732589)"><g><path d="M 10.09375 -20.5 C 13.414062 -20.757812 16.046875 -20.109375 17.984375 -18.546875 C 19.929688 -16.992188 21.03125 -14.597656 21.28125 -11.359375 C 21.539062 -8.109375 20.832031 -5.5625 19.15625 -3.71875 C 17.488281 -1.882812 14.992188 -0.835938 11.671875 -0.578125 C 8.347656 -0.316406 5.71875 -0.957031 3.78125 -2.5 C 1.851562 -4.050781 0.757812 -6.457031 0.5 -9.71875 C 0.25 -12.976562 0.953125 -15.523438 2.609375 -17.359375 C 4.273438 -19.191406 6.769531 -20.238281 10.09375 -20.5 Z M 10.453125 -15.890625 C 9.128906 -15.785156 8.15625 -15.300781 7.53125 -14.4375 C 6.90625 -13.582031 6.644531 -12.472656 6.75 -11.109375 L 6.890625 -9.3125 C 6.992188 -7.957031 7.421875 -6.90625 8.171875 -6.15625 C 8.929688 -5.414062 9.972656 -5.097656 11.296875 -5.203125 C 12.617188 -5.304688 13.597656 -5.785156 14.234375 -6.640625 C 14.867188 -7.492188 15.132812 -8.597656 15.03125 -9.953125 L 14.890625 -11.75 C 14.785156 -13.113281 14.347656 -14.171875 13.578125 -14.921875 C 12.816406 -15.671875 11.773438 -15.992188 10.453125 -15.890625 Z M 10.453125 -15.890625 "/></g></g></g><g fill="#00609e" fill-opacity="1"><g transform="translate(190.856618, 96.469647)"><g/></g></g><g fill="#00609e" fill-opacity="1"><g transform="translate(198.805489, 96.248699)"><g><path d="M 17.984375 4.9375 L 19.828125 -1.765625 C 20.054688 -2.597656 20.320312 -3.441406 20.625 -4.296875 C 20.9375 -5.148438 21.207031 -5.863281 21.4375 -6.4375 C 21.675781 -7.019531 21.828125 -7.390625 21.890625 -7.546875 L 21.796875 -7.578125 L 14.890625 4.09375 L 10.203125 2.796875 L 10.1875 -10.734375 L 10.078125 -10.75 C 10.054688 -10.59375 10.003906 -10.207031 9.921875 -9.59375 C 9.847656 -8.988281 9.722656 -8.238281 9.546875 -7.34375 C 9.378906 -6.445312 9.179688 -5.582031 8.953125 -4.75 L 7.109375 1.953125 L 1.625 0.453125 L 6.75 -18.171875 L 15.1875 -15.859375 L 15.046875 -4.328125 L 15.15625 -4.3125 L 20.90625 -14.296875 L 29.046875 -12.046875 L 23.921875 6.578125 Z M 17.984375 4.9375 "/></g></g></g><g fill="#00609e" fill-opacity="1"><g transform="translate(222.411916, 102.876487)"><g><path d="M 11.15625 -15.90625 L 25.78125 -7.828125 L 23.53125 -3.765625 L 14.34375 -8.84375 L 13.0625 -6.515625 L 20.921875 -2.171875 L 18.78125 1.703125 L 10.921875 -2.640625 L 9.484375 -0.046875 L 18.84375 5.125 L 16.609375 9.171875 L 1.8125 1 Z M 11.15625 -15.90625 "/></g></g></g><g fill="#00609e" fill-opacity="1"><g transform="translate(238.744495, 111.700296)"><g><path d="M 20.53125 -8.25 C 22.394531 -6.644531 23.601562 -4.945312 24.15625 -3.15625 C 24.71875 -1.363281 24.375 0.296875 23.125 1.828125 L 22.90625 2.0625 L 18.5 -1.734375 L 18.578125 -1.8125 C 18.941406 -2.238281 19.085938 -2.722656 19.015625 -3.265625 C 18.953125 -3.816406 18.597656 -4.367188 17.953125 -4.921875 C 17.328125 -5.453125 16.769531 -5.769531 16.28125 -5.875 C 15.789062 -5.976562 15.429688 -5.894531 15.203125 -5.625 C 14.867188 -5.238281 14.847656 -4.757812 15.140625 -4.1875 C 15.441406 -3.613281 16.007812 -2.800781 16.84375 -1.75 C 17.8125 -0.476562 18.5625 0.609375 19.09375 1.515625 C 19.632812 2.429688 19.929688 3.429688 19.984375 4.515625 C 20.035156 5.597656 19.628906 6.660156 18.765625 7.703125 C 17.273438 9.429688 15.585938 10.210938 13.703125 10.046875 C 11.816406 9.878906 9.894531 8.953125 7.9375 7.265625 C 5.65625 5.304688 4.203125 3.394531 3.578125 1.53125 C 2.960938 -0.320312 3.488281 -2.222656 5.15625 -4.171875 L 9.625 -0.34375 C 9 0.382812 8.769531 1.035156 8.9375 1.609375 C 9.101562 2.191406 9.59375 2.832031 10.40625 3.53125 C 10.988281 4.039062 11.53125 4.394531 12.03125 4.59375 C 12.539062 4.800781 12.96875 4.707031 13.3125 4.3125 C 13.613281 3.957031 13.625 3.503906 13.34375 2.953125 C 13.0625 2.410156 12.519531 1.617188 11.71875 0.578125 C 10.738281 -0.691406 9.972656 -1.800781 9.421875 -2.75 C 8.878906 -3.695312 8.59375 -4.738281 8.5625 -5.875 C 8.539062 -7.019531 9 -8.140625 9.9375 -9.234375 C 11.3125 -10.835938 12.941406 -11.484375 14.828125 -11.171875 C 16.722656 -10.859375 18.625 -9.882812 20.53125 -8.25 Z M 20.53125 -8.25 "/></g></g></g><g fill="#00609e" fill-opacity="1"><g transform="translate(252.963162, 123.559233)"><g><path d="M 9.0625 11.96875 L 10.75 9.6875 L 6.65625 4.28125 L 4 5.28125 L 0.171875 0.21875 L 19.8125 -5.8125 L 24.15625 -0.078125 L 13.03125 17.203125 Z M 10.890625 2.71875 L 13.421875 6.046875 L 17.671875 0.28125 L 17.59375 0.1875 Z M 10.890625 2.71875 "/></g></g></g><g fill="#00609e" fill-opacity="1"><g transform="translate(95.497313, 253.472222)"><g><path d="M 10.453125 10.890625 L 15.734375 5.8125 L 11.015625 0.890625 L 5.734375 5.96875 L 1.4375 1.5 L 15.375 -11.875 L 19.671875 -7.40625 L 14.578125 -2.53125 L 19.296875 2.390625 L 24.390625 -2.484375 L 28.6875 1.984375 L 14.75 15.359375 Z M 10.453125 10.890625 "/></g></g></g><g fill="#00609e" fill-opacity="1"><g transform="translate(113.180679, 271.395819)"><g><path d="M 12.65625 -14.734375 L 26.40625 -5.265625 L 23.78125 -1.453125 L 15.140625 -7.40625 L 13.640625 -5.21875 L 21.03125 -0.125 L 18.515625 3.53125 L 11.125 -1.5625 L 9.453125 0.875 L 18.25 6.9375 L 15.625 10.75 L 1.71875 1.171875 Z M 12.65625 -14.734375 "/></g></g></g><g fill="#00609e" fill-opacity="1"><g transform="translate(131.374494, 283.794405)"><g><path d="M 24.046875 -4.234375 C 23.578125 -3.148438 22.859375 -2.289062 21.890625 -1.65625 C 20.929688 -1.03125 19.800781 -0.753906 18.5 -0.828125 L 19.265625 8.296875 L 12.859375 5.53125 L 12.5 -2.28125 L 10.390625 -3.1875 L 7.609375 3.28125 L 1.90625 0.828125 L 9.546875 -16.90625 L 20.40625 -12.234375 C 21.675781 -11.691406 22.65625 -10.976562 23.34375 -10.09375 C 24.03125 -9.21875 24.421875 -8.265625 24.515625 -7.234375 C 24.617188 -6.210938 24.460938 -5.210938 24.046875 -4.234375 Z M 18.140625 -6.484375 C 18.335938 -6.953125 18.347656 -7.40625 18.171875 -7.84375 C 17.992188 -8.289062 17.679688 -8.613281 17.234375 -8.8125 L 13.5 -10.40625 L 12.09375 -7.140625 L 15.828125 -5.546875 C 16.273438 -5.347656 16.71875 -5.335938 17.15625 -5.515625 C 17.601562 -5.691406 17.929688 -6.015625 18.140625 -6.484375 Z M 18.140625 -6.484375 "/></g></g></g><g fill="#00609e" fill-opacity="1"><g transform="translate(153.215455, 293.066896)"><g><path d="M 15.59375 3.09375 L 9.4375 -7.6875 L 7.609375 1.515625 L 2.03125 0.40625 L 5.796875 -18.53125 L 11.125 -17.484375 L 17.21875 -6.5625 L 19.078125 -15.890625 L 24.65625 -14.796875 L 20.890625 4.140625 Z M 15.59375 3.09375 "/></g></g></g><g fill="#00609e" fill-opacity="1"><g transform="translate(178.039939, 297.710736)"><g><path d="M 7.90625 -21.234375 L 10.4375 -24.984375 L 15.859375 -25.0625 L 15.921875 -24.953125 L 11.46875 -21.28125 Z M 14.15625 -2.921875 L 7.390625 -2.828125 L 6.625 -0.09375 L 0.28125 0 L 7.046875 -19.421875 L 14.25 -19.515625 L 21.578125 -0.3125 L 15.015625 -0.21875 Z M 12.796875 -7.234375 L 10.6875 -14.078125 L 10.578125 -14.078125 L 8.625 -7.171875 Z M 12.796875 -7.234375 "/></g></g></g><g fill="#00609e" fill-opacity="1"><g transform="translate(201.763321, 297.248305)"><g><path d="M 15.484375 -3.546875 L 5.46875 -10.875 L 7.5625 -1.734375 L 2.03125 -0.46875 L -2.28125 -19.296875 L 3 -20.5 L 13.03125 -13.03125 L 10.90625 -22.3125 L 16.453125 -23.578125 L 20.765625 -4.75 Z M 15.484375 -3.546875 "/></g></g></g><g fill="#00609e" fill-opacity="1"><g transform="translate(226.317761, 291.340541)"><g><path d="M 1.328125 -21.921875 C 7.441406 -24.765625 11.851562 -23.265625 14.5625 -17.421875 C 17.28125 -11.585938 15.582031 -7.25 9.46875 -4.40625 L 1.890625 -0.875 L -6.25 -18.390625 Z M 5.5625 -7.6875 L 7.40625 -8.546875 C 9.769531 -9.640625 10.363281 -11.453125 9.1875 -13.984375 L 8.46875 -15.515625 C 7.300781 -18.035156 5.535156 -18.75 3.171875 -17.65625 L 1.328125 -16.796875 Z M 5.5625 -7.6875 "/></g></g></g><g fill="#00609e" fill-opacity="1"><g transform="translate(247.585225, 281.170919)"><g><path d="M -9.734375 -16.828125 L 3.75 -26.6875 L 6.5 -22.9375 L -1.96875 -16.734375 L -0.40625 -14.59375 L 6.84375 -19.890625 L 9.46875 -16.296875 L 2.21875 -11 L 3.953125 -8.625 L 12.578125 -14.9375 L 15.3125 -11.203125 L 1.671875 -1.234375 Z M -9.734375 -16.828125 "/></g></g></g><g fill="#00609e" fill-opacity="1"><g transform="translate(265.199724, 268.090334)"><g><path d="M 3.59375 -10.625 L 9.84375 -17.34375 L 13.21875 -14.1875 L 0.453125 -0.484375 L -1.015625 -1.84375 L -4.171875 -17.03125 L -9.8125 -10.984375 L -13.203125 -14.15625 L -1.046875 -27.1875 L 0.421875 -25.828125 Z M 3.59375 -10.625 "/></g></g></g></svg>