<svg xmlns="http://www.w3.org/2000/svg" xmlns:xlink="http://www.w3.org/1999/xlink" width="500" zoomAndPan="magnify" viewBox="0 0 375 135.000003" height="180" preserveAspectRatio="xMidYMid meet" version="1.0"><defs><g/><clipPath id="a38a14c939"><path d="M 1.378906 0 L 373.621094 0 L 373.621094 134.007812 L 1.378906 134.007812 Z M 1.378906 0 " clip-rule="nonzero"/></clipPath><clipPath id="1124cd531d"><path d="M 143.199219 23.097656 L 231.792969 23.097656 L 231.792969 62.554688 L 143.199219 62.554688 Z M 143.199219 23.097656 " clip-rule="nonzero"/></clipPath></defs><g clip-path="url(#a38a14c939)"><path fill="#ffffff" d="M 1.378906 0 L 373.621094 0 L 373.621094 134.007812 L 1.378906 134.007812 Z M 1.378906 0 " fill-opacity="1" fill-rule="nonzero"/><path fill="#004aad" d="M 1.378906 0 L 373.621094 0 L 373.621094 134.007812 L 1.378906 134.007812 Z M 1.378906 0 " fill-opacity="1" fill-rule="nonzero"/></g><g clip-path="url(#1124cd531d)"><path fill="#5271ff" d="M 231.792969 42.667969 C 231.792969 53.460938 223.042969 62.210938 212.25 62.210938 L 162.742188 62.210938 C 151.945312 62.210938 143.199219 53.460938 143.199219 42.667969 C 143.199219 31.875 151.945312 23.125 162.742188 23.125 L 212.25 23.125 C 223.042969 23.125 231.792969 31.875 231.792969 42.667969 Z M 231.792969 42.667969 " fill-opacity="1" fill-rule="nonzero"/></g><path fill="#f4f4f4" d="M 227.449219 42.667969 C 227.449219 51.207031 220.527344 58.128906 211.988281 58.128906 C 203.449219 58.128906 196.527344 51.207031 196.527344 42.667969 C 196.527344 34.128906 203.449219 27.207031 211.988281 27.207031 C 220.527344 27.207031 227.449219 34.128906 227.449219 42.667969 Z M 227.449219 42.667969 " fill-opacity="1" fill-rule="nonzero"/><g fill="#5ce1e6" fill-opacity="1"><g transform="translate(158.414691, 101.20419)"><g><path d="M 0.34375 -4.671875 L 0.34375 -5.234375 L 4.265625 -5.234375 L 4.265625 -4.671875 L 2.625 -4.671875 L 2.625 0 L 1.984375 0 L 1.984375 -4.671875 Z M 0.34375 -4.671875 "/></g></g></g><g fill="#5ce1e6" fill-opacity="1"><g transform="translate(164.71866, 101.20419)"><g><path d="M 0.640625 0 L 0.640625 -5.234375 L 3.78125 -5.234375 L 3.78125 -4.671875 L 1.265625 -4.671875 L 1.265625 -2.90625 L 3.625 -2.90625 L 3.625 -2.34375 L 1.265625 -2.34375 L 1.265625 -0.5625 L 3.828125 -0.5625 L 3.828125 0 Z M 0.640625 0 "/></g></g></g><g fill="#5ce1e6" fill-opacity="1"><g transform="translate(170.706564, 101.20419)"><g><path d="M 4.84375 -3.59375 L 4.203125 -3.59375 C 4.148438 -3.832031 4.050781 -4.035156 3.90625 -4.203125 C 3.769531 -4.367188 3.597656 -4.492188 3.390625 -4.578125 C 3.179688 -4.660156 2.960938 -4.703125 2.734375 -4.703125 C 2.421875 -4.703125 2.132812 -4.617188 1.875 -4.453125 C 1.625 -4.296875 1.421875 -4.0625 1.265625 -3.75 C 1.117188 -3.445312 1.046875 -3.066406 1.046875 -2.609375 C 1.046875 -2.160156 1.117188 -1.78125 1.265625 -1.46875 C 1.421875 -1.15625 1.625 -0.914062 1.875 -0.75 C 2.132812 -0.59375 2.421875 -0.515625 2.734375 -0.515625 C 2.960938 -0.515625 3.179688 -0.554688 3.390625 -0.640625 C 3.597656 -0.734375 3.769531 -0.859375 3.90625 -1.015625 C 4.050781 -1.179688 4.148438 -1.390625 4.203125 -1.640625 L 4.84375 -1.640625 C 4.769531 -1.273438 4.632812 -0.960938 4.4375 -0.703125 C 4.238281 -0.453125 3.992188 -0.257812 3.703125 -0.125 C 3.410156 0.0078125 3.085938 0.078125 2.734375 0.078125 C 2.285156 0.078125 1.890625 -0.03125 1.546875 -0.25 C 1.203125 -0.46875 0.925781 -0.773438 0.71875 -1.171875 C 0.519531 -1.578125 0.421875 -2.054688 0.421875 -2.609375 C 0.421875 -3.160156 0.519531 -3.632812 0.71875 -4.03125 C 0.925781 -4.4375 1.203125 -4.75 1.546875 -4.96875 C 1.890625 -5.1875 2.285156 -5.296875 2.734375 -5.296875 C 3.085938 -5.296875 3.410156 -5.226562 3.703125 -5.09375 C 3.992188 -4.957031 4.238281 -4.757812 4.4375 -4.5 C 4.632812 -4.25 4.769531 -3.945312 4.84375 -3.59375 Z M 4.84375 -3.59375 "/></g></g></g><g fill="#5ce1e6" fill-opacity="1"><g transform="translate(177.622264, 101.20419)"><g><path d="M 4.78125 -5.234375 L 4.78125 0 L 4.171875 0 L 1.3125 -4.109375 L 1.265625 -4.109375 L 1.265625 0 L 0.640625 0 L 0.640625 -5.234375 L 1.25 -5.234375 L 4.109375 -1.109375 L 4.15625 -1.109375 L 4.15625 -5.234375 Z M 4.78125 -5.234375 "/></g></g></g><g fill="#5ce1e6" fill-opacity="1"><g transform="translate(184.721488, 101.20419)"><g><path d="M 5.046875 -2.609375 C 5.046875 -2.054688 4.945312 -1.578125 4.75 -1.171875 C 4.550781 -0.773438 4.273438 -0.46875 3.921875 -0.25 C 3.578125 -0.03125 3.179688 0.078125 2.734375 0.078125 C 2.285156 0.078125 1.890625 -0.03125 1.546875 -0.25 C 1.203125 -0.46875 0.925781 -0.773438 0.71875 -1.171875 C 0.519531 -1.578125 0.421875 -2.054688 0.421875 -2.609375 C 0.421875 -3.160156 0.519531 -3.632812 0.71875 -4.03125 C 0.925781 -4.4375 1.203125 -4.75 1.546875 -4.96875 C 1.890625 -5.1875 2.285156 -5.296875 2.734375 -5.296875 C 3.179688 -5.296875 3.578125 -5.1875 3.921875 -4.96875 C 4.273438 -4.75 4.550781 -4.4375 4.75 -4.03125 C 4.945312 -3.632812 5.046875 -3.160156 5.046875 -2.609375 Z M 4.4375 -2.609375 C 4.4375 -3.066406 4.359375 -3.445312 4.203125 -3.75 C 4.054688 -4.0625 3.851562 -4.296875 3.59375 -4.453125 C 3.332031 -4.617188 3.046875 -4.703125 2.734375 -4.703125 C 2.421875 -4.703125 2.132812 -4.617188 1.875 -4.453125 C 1.625 -4.296875 1.421875 -4.0625 1.265625 -3.75 C 1.117188 -3.445312 1.046875 -3.066406 1.046875 -2.609375 C 1.046875 -2.160156 1.117188 -1.78125 1.265625 -1.46875 C 1.421875 -1.15625 1.625 -0.914062 1.875 -0.75 C 2.132812 -0.59375 2.421875 -0.515625 2.734375 -0.515625 C 3.046875 -0.515625 3.332031 -0.59375 3.59375 -0.75 C 3.851562 -0.914062 4.054688 -1.15625 4.203125 -1.46875 C 4.359375 -1.78125 4.4375 -2.160156 4.4375 -2.609375 Z M 4.4375 -2.609375 "/></g></g></g><g fill="#5ce1e6" fill-opacity="1"><g transform="translate(191.881884, 101.20419)"><g><path d="M 0.640625 0 L 0.640625 -5.234375 L 1.265625 -5.234375 L 1.265625 -0.5625 L 3.703125 -0.5625 L 3.703125 0 Z M 0.640625 0 "/></g></g></g><g fill="#5ce1e6" fill-opacity="1"><g transform="translate(197.614901, 101.20419)"><g><path d="M 5.046875 -2.609375 C 5.046875 -2.054688 4.945312 -1.578125 4.75 -1.171875 C 4.550781 -0.773438 4.273438 -0.46875 3.921875 -0.25 C 3.578125 -0.03125 3.179688 0.078125 2.734375 0.078125 C 2.285156 0.078125 1.890625 -0.03125 1.546875 -0.25 C 1.203125 -0.46875 0.925781 -0.773438 0.71875 -1.171875 C 0.519531 -1.578125 0.421875 -2.054688 0.421875 -2.609375 C 0.421875 -3.160156 0.519531 -3.632812 0.71875 -4.03125 C 0.925781 -4.4375 1.203125 -4.75 1.546875 -4.96875 C 1.890625 -5.1875 2.285156 -5.296875 2.734375 -5.296875 C 3.179688 -5.296875 3.578125 -5.1875 3.921875 -4.96875 C 4.273438 -4.75 4.550781 -4.4375 4.75 -4.03125 C 4.945312 -3.632812 5.046875 -3.160156 5.046875 -2.609375 Z M 4.4375 -2.609375 C 4.4375 -3.066406 4.359375 -3.445312 4.203125 -3.75 C 4.054688 -4.0625 3.851562 -4.296875 3.59375 -4.453125 C 3.332031 -4.617188 3.046875 -4.703125 2.734375 -4.703125 C 2.421875 -4.703125 2.132812 -4.617188 1.875 -4.453125 C 1.625 -4.296875 1.421875 -4.0625 1.265625 -3.75 C 1.117188 -3.445312 1.046875 -3.066406 1.046875 -2.609375 C 1.046875 -2.160156 1.117188 -1.78125 1.265625 -1.46875 C 1.421875 -1.15625 1.625 -0.914062 1.875 -0.75 C 2.132812 -0.59375 2.421875 -0.515625 2.734375 -0.515625 C 3.046875 -0.515625 3.332031 -0.59375 3.59375 -0.75 C 3.851562 -0.914062 4.054688 -1.15625 4.203125 -1.46875 C 4.359375 -1.78125 4.4375 -2.160156 4.4375 -2.609375 Z M 4.4375 -2.609375 "/></g></g></g><g fill="#5ce1e6" fill-opacity="1"><g transform="translate(204.775297, 101.20419)"><g><path d="M 4.203125 -3.59375 C 4.097656 -3.9375 3.914062 -4.207031 3.65625 -4.40625 C 3.40625 -4.601562 3.09375 -4.703125 2.71875 -4.703125 C 2.40625 -4.703125 2.117188 -4.617188 1.859375 -4.453125 C 1.609375 -4.296875 1.410156 -4.0625 1.265625 -3.75 C 1.117188 -3.445312 1.046875 -3.066406 1.046875 -2.609375 C 1.046875 -2.160156 1.117188 -1.78125 1.265625 -1.46875 C 1.421875 -1.15625 1.625 -0.914062 1.875 -0.75 C 2.132812 -0.59375 2.425781 -0.515625 2.75 -0.515625 C 3.050781 -0.515625 3.3125 -0.578125 3.53125 -0.703125 C 3.757812 -0.828125 3.9375 -1.003906 4.0625 -1.234375 C 4.195312 -1.460938 4.269531 -1.734375 4.28125 -2.046875 L 2.90625 -2.046875 L 2.90625 -2.609375 L 4.890625 -2.609375 L 4.890625 -2.046875 C 4.890625 -1.617188 4.796875 -1.242188 4.609375 -0.921875 C 4.429688 -0.609375 4.179688 -0.363281 3.859375 -0.1875 C 3.535156 -0.0078125 3.164062 0.078125 2.75 0.078125 C 2.289062 0.078125 1.882812 -0.03125 1.53125 -0.25 C 1.1875 -0.46875 0.914062 -0.773438 0.71875 -1.171875 C 0.519531 -1.578125 0.421875 -2.054688 0.421875 -2.609375 C 0.421875 -3.160156 0.519531 -3.632812 0.71875 -4.03125 C 0.914062 -4.4375 1.1875 -4.75 1.53125 -4.96875 C 1.875 -5.1875 2.269531 -5.296875 2.71875 -5.296875 C 3.082031 -5.296875 3.414062 -5.222656 3.71875 -5.078125 C 4.019531 -4.929688 4.269531 -4.726562 4.46875 -4.46875 C 4.664062 -4.21875 4.796875 -3.925781 4.859375 -3.59375 Z M 4.203125 -3.59375 "/></g></g></g><g fill="#5ce1e6" fill-opacity="1"><g transform="translate(211.803147, 101.20419)"><g><path d="M 0.1875 -5.234375 L 0.90625 -5.234375 L 2.359375 -2.78125 L 2.421875 -2.78125 L 3.875 -5.234375 L 4.59375 -5.234375 L 2.703125 -2.15625 L 2.703125 0 L 2.078125 0 L 2.078125 -2.15625 Z M 0.1875 -5.234375 "/></g></g></g><g fill="#5ce1e6" fill-opacity="1"><g transform="translate(164.001018, 111.175004)"><g><path d="M 4.84375 -3.59375 L 4.203125 -3.59375 C 4.148438 -3.832031 4.050781 -4.035156 3.90625 -4.203125 C 3.769531 -4.367188 3.597656 -4.492188 3.390625 -4.578125 C 3.179688 -4.660156 2.960938 -4.703125 2.734375 -4.703125 C 2.421875 -4.703125 2.132812 -4.617188 1.875 -4.453125 C 1.625 -4.296875 1.421875 -4.0625 1.265625 -3.75 C 1.117188 -3.445312 1.046875 -3.066406 1.046875 -2.609375 C 1.046875 -2.160156 1.117188 -1.78125 1.265625 -1.46875 C 1.421875 -1.15625 1.625 -0.914062 1.875 -0.75 C 2.132812 -0.59375 2.421875 -0.515625 2.734375 -0.515625 C 2.960938 -0.515625 3.179688 -0.554688 3.390625 -0.640625 C 3.597656 -0.734375 3.769531 -0.859375 3.90625 -1.015625 C 4.050781 -1.179688 4.148438 -1.390625 4.203125 -1.640625 L 4.84375 -1.640625 C 4.769531 -1.273438 4.632812 -0.960938 4.4375 -0.703125 C 4.238281 -0.453125 3.992188 -0.257812 3.703125 -0.125 C 3.410156 0.0078125 3.085938 0.078125 2.734375 0.078125 C 2.285156 0.078125 1.890625 -0.03125 1.546875 -0.25 C 1.203125 -0.46875 0.925781 -0.773438 0.71875 -1.171875 C 0.519531 -1.578125 0.421875 -2.054688 0.421875 -2.609375 C 0.421875 -3.160156 0.519531 -3.632812 0.71875 -4.03125 C 0.925781 -4.4375 1.203125 -4.75 1.546875 -4.96875 C 1.890625 -5.1875 2.285156 -5.296875 2.734375 -5.296875 C 3.085938 -5.296875 3.410156 -5.226562 3.703125 -5.09375 C 3.992188 -4.957031 4.238281 -4.757812 4.4375 -4.5 C 4.632812 -4.25 4.769531 -3.945312 4.84375 -3.59375 Z M 4.84375 -3.59375 "/></g></g></g><g fill="#5ce1e6" fill-opacity="1"><g transform="translate(170.916719, 111.175004)"><g><path d="M 5.046875 -2.609375 C 5.046875 -2.054688 4.945312 -1.578125 4.75 -1.171875 C 4.550781 -0.773438 4.273438 -0.46875 3.921875 -0.25 C 3.578125 -0.03125 3.179688 0.078125 2.734375 0.078125 C 2.285156 0.078125 1.890625 -0.03125 1.546875 -0.25 C 1.203125 -0.46875 0.925781 -0.773438 0.71875 -1.171875 C 0.519531 -1.578125 0.421875 -2.054688 0.421875 -2.609375 C 0.421875 -3.160156 0.519531 -3.632812 0.71875 -4.03125 C 0.925781 -4.4375 1.203125 -4.75 1.546875 -4.96875 C 1.890625 -5.1875 2.285156 -5.296875 2.734375 -5.296875 C 3.179688 -5.296875 3.578125 -5.1875 3.921875 -4.96875 C 4.273438 -4.75 4.550781 -4.4375 4.75 -4.03125 C 4.945312 -3.632812 5.046875 -3.160156 5.046875 -2.609375 Z M 4.4375 -2.609375 C 4.4375 -3.066406 4.359375 -3.445312 4.203125 -3.75 C 4.054688 -4.0625 3.851562 -4.296875 3.59375 -4.453125 C 3.332031 -4.617188 3.046875 -4.703125 2.734375 -4.703125 C 2.421875 -4.703125 2.132812 -4.617188 1.875 -4.453125 C 1.625 -4.296875 1.421875 -4.0625 1.265625 -3.75 C 1.117188 -3.445312 1.046875 -3.066406 1.046875 -2.609375 C 1.046875 -2.160156 1.117188 -1.78125 1.265625 -1.46875 C 1.421875 -1.15625 1.625 -0.914062 1.875 -0.75 C 2.132812 -0.59375 2.421875 -0.515625 2.734375 -0.515625 C 3.046875 -0.515625 3.332031 -0.59375 3.59375 -0.75 C 3.851562 -0.914062 4.054688 -1.15625 4.203125 -1.46875 C 4.359375 -1.78125 4.4375 -2.160156 4.4375 -2.609375 Z M 4.4375 -2.609375 "/></g></g></g><g fill="#5ce1e6" fill-opacity="1"><g transform="translate(178.077115, 111.175004)"><g><path d="M 0.640625 -5.234375 L 1.390625 -5.234375 L 3.171875 -0.890625 L 3.21875 -0.890625 L 5 -5.234375 L 5.765625 -5.234375 L 5.765625 0 L 5.171875 0 L 5.171875 -3.96875 L 5.109375 -3.96875 L 3.484375 0 L 2.90625 0 L 1.28125 -3.96875 L 1.21875 -3.96875 L 1.21875 0 L 0.640625 0 Z M 0.640625 -5.234375 "/></g></g></g><g fill="#5ce1e6" fill-opacity="1"><g transform="translate(186.318243, 111.175004)"><g><path d="M 0.640625 0 L 0.640625 -5.234375 L 2.40625 -5.234375 C 2.8125 -5.234375 3.144531 -5.15625 3.40625 -5 C 3.664062 -4.851562 3.859375 -4.65625 3.984375 -4.40625 C 4.109375 -4.15625 4.171875 -3.878906 4.171875 -3.578125 C 4.171875 -3.265625 4.109375 -2.984375 3.984375 -2.734375 C 3.859375 -2.484375 3.664062 -2.28125 3.40625 -2.125 C 3.144531 -1.976562 2.8125 -1.90625 2.40625 -1.90625 L 1.265625 -1.90625 L 1.265625 0 Z M 1.265625 -2.46875 L 2.390625 -2.46875 C 2.804688 -2.46875 3.101562 -2.570312 3.28125 -2.78125 C 3.457031 -3 3.546875 -3.265625 3.546875 -3.578125 C 3.546875 -3.890625 3.457031 -4.148438 3.28125 -4.359375 C 3.101562 -4.566406 2.800781 -4.671875 2.375 -4.671875 L 1.265625 -4.671875 Z M 1.265625 -2.46875 "/></g></g></g><g fill="#5ce1e6" fill-opacity="1"><g transform="translate(192.571234, 111.175004)"><g><path d="M 0.84375 0 L 0.1875 0 L 2.109375 -5.234375 L 2.75 -5.234375 L 4.671875 0 L 4.015625 0 L 3.484375 -1.484375 L 1.375 -1.484375 Z M 1.578125 -2.046875 L 3.28125 -2.046875 L 2.453125 -4.40625 L 2.40625 -4.40625 Z M 1.578125 -2.046875 "/></g></g></g><g fill="#5ce1e6" fill-opacity="1"><g transform="translate(199.119898, 111.175004)"><g><path d="M 4.78125 -5.234375 L 4.78125 0 L 4.171875 0 L 1.3125 -4.109375 L 1.265625 -4.109375 L 1.265625 0 L 0.640625 0 L 0.640625 -5.234375 L 1.25 -5.234375 L 4.109375 -1.109375 L 4.15625 -1.109375 L 4.15625 -5.234375 Z M 4.78125 -5.234375 "/></g></g></g><g fill="#5ce1e6" fill-opacity="1"><g transform="translate(206.219122, 111.175004)"><g><path d="M 0.1875 -5.234375 L 0.90625 -5.234375 L 2.359375 -2.78125 L 2.421875 -2.78125 L 3.875 -5.234375 L 4.59375 -5.234375 L 2.703125 -2.15625 L 2.703125 0 L 2.078125 0 L 2.078125 -2.15625 Z M 0.1875 -5.234375 "/></g></g></g><g fill="#ffffff" fill-opacity="1"><g transform="translate(156.327404, 90.491337)"><g><path d="M 6.859375 0 L 0.5625 -21.96875 L 5.640625 -21.96875 L 9.28125 -6.703125 L 9.453125 -6.703125 L 13.46875 -21.96875 L 17.8125 -21.96875 L 21.8125 -6.671875 L 22.015625 -6.671875 L 25.640625 -21.96875 L 30.71875 -21.96875 L 24.4375 0 L 19.90625 0 L 15.71875 -14.359375 L 15.546875 -14.359375 L 11.375 0 Z M 6.859375 0 "/></g></g></g><g fill="#ffffff" fill-opacity="1"><g transform="translate(189.119205, 90.491337)"><g><path d="M 6.546875 -21.96875 L 6.546875 0 L 1.90625 0 L 1.90625 -21.96875 Z M 6.546875 -21.96875 "/></g></g></g><g fill="#ffffff" fill-opacity="1"><g transform="translate(199.101511, 90.491337)"><g><path d="M 1.90625 0 L 1.90625 -21.96875 L 10.578125 -21.96875 C 12.242188 -21.96875 13.660156 -21.648438 14.828125 -21.015625 C 16.003906 -20.378906 16.898438 -19.5 17.515625 -18.375 C 18.140625 -17.257812 18.453125 -15.972656 18.453125 -14.515625 C 18.453125 -13.054688 18.132812 -11.769531 17.5 -10.65625 C 16.875 -9.550781 15.960938 -8.6875 14.765625 -8.0625 C 13.578125 -7.4375 12.140625 -7.125 10.453125 -7.125 L 6.546875 -7.125 L 6.546875 0 Z M 6.546875 -10.84375 L 9.703125 -10.84375 C 11.035156 -10.84375 12.03125 -11.179688 12.6875 -11.859375 C 13.34375 -12.546875 13.671875 -13.429688 13.671875 -14.515625 C 13.671875 -15.609375 13.34375 -16.488281 12.6875 -17.15625 C 12.03125 -17.832031 11.03125 -18.171875 9.6875 -18.171875 L 6.546875 -18.171875 Z M 6.546875 -10.84375 "/></g></g></g></svg>